<mxfile host="65bd71144e">
    <diagram id="6o4tnCjdxANNbsr4hsJV" name="Page-1">
        <mxGraphModel dx="916" dy="803" grid="1" gridSize="10" guides="1" tooltips="1" connect="1" arrows="1" fold="1" page="1" pageScale="1" pageWidth="1169" pageHeight="827" math="0" shadow="0">
            <root>
                <mxCell id="0"/>
                <mxCell id="1" parent="0"/>
                <mxCell id="5" value="" style="rounded=0;whiteSpace=wrap;html=1;opacity=80;strokeColor=none;" parent="1" vertex="1">
                    <mxGeometry x="20" y="20" width="1100" height="500" as="geometry"/>
                </mxCell>
                <mxCell id="saldxAls0CMVUxLMnOsH-15" value="" style="rounded=0;whiteSpace=wrap;html=1;fillColor=#f5f5f5;fontFamily=varela round;fontSize=18;verticalAlign=bottom;labelPosition=left;verticalLabelPosition=top;align=right;strokeColor=#666666;fontColor=#333333;" parent="1" vertex="1">
                    <mxGeometry x="560" y="70" width="520" height="280" as="geometry"/>
                </mxCell>
                <mxCell id="saldxAls0CMVUxLMnOsH-9" value="ToDo" style="rounded=0;whiteSpace=wrap;html=1;fontFamily=varela round;fontSize=18;fillColor=#dae8fc;verticalAlign=bottom;labelPosition=center;verticalLabelPosition=top;align=center;strokeColor=#6c8ebf;" parent="1" vertex="1">
                    <mxGeometry x="590" y="120" width="100" height="180" as="geometry"/>
                </mxCell>
                <mxCell id="saldxAls0CMVUxLMnOsH-11" value="InProgress" style="rounded=0;whiteSpace=wrap;html=1;fontFamily=varela round;fontSize=18;fillColor=#dae8fc;verticalAlign=bottom;labelPosition=center;verticalLabelPosition=top;align=center;strokeColor=#6c8ebf;" parent="1" vertex="1">
                    <mxGeometry x="710" y="120" width="100" height="180" as="geometry"/>
                </mxCell>
                <mxCell id="saldxAls0CMVUxLMnOsH-12" value="Review" style="rounded=0;whiteSpace=wrap;html=1;fontFamily=varela round;fontSize=18;fillColor=#dae8fc;verticalAlign=bottom;labelPosition=center;verticalLabelPosition=top;align=center;strokeColor=#6c8ebf;" parent="1" vertex="1">
                    <mxGeometry x="830" y="120" width="100" height="180" as="geometry"/>
                </mxCell>
                <mxCell id="saldxAls0CMVUxLMnOsH-1" value="" style="shape=image;verticalLabelPosition=bottom;verticalAlign=top;imageAspect=0;aspect=fixed;image=data:image/png,iVBORw0KGgoAAAANSUhEUgAAAKAAAACgCAYAAAH8yFe7AAAABGdBTUEAALGPC/xhBQAAADhlWElmTU0AKgAAAAgAAYdpAAQAAAABAAAAGgAAAAAAAqACAAQAAAABAAAAoKADAAQAAAABAAAAoAAAAACEJDuzAAAQ20lEQVR4Ae1dB8wlVRVe2GVpUkSqsrgLS4l0FBGkQ4KrIggaRCkJRsCgCCaWSNAhBgwYRMCyISRGWLGgQYMFRLJ0IRERBKRms0WKFOkd8fv+f87bs/fdKXfulPfmPyf5/tvOOffcb+60+2bmnzZtSstbEaMf2K5c0Yk4kNTrJrfRY6H1B3lfhGzU8PiaaF8JDQf5GqVu0ItUBKQD2xnK6FbkBw2qvsfZJGJsA1vfVi7jVxxI6rXJbfRYaP1BXm9lsRk0phVumdWsI44HLgK8knhry1UObDnbRdZB5lQpBKZ3Qv+KQBtTNwZiGVicOpgf64j2chBmKvmBX72nSKWr5NPRunntolc91d7dyEK8aj+l7GI6K9XB6Cttl4b4VTfUKiepBE7uBpiuAawgvq2TKI0FyD+kym42QQXRnOgIk4huYmwjujXTXjCgZ6EM6FVkZkqh5dQXz1AITR5Jf4De6J9wSSjdr6soDqukMvrDkeGWoWj/WflJzYy/2ihDJbj6flh80mOl+9J5j+ryqtKKy01K5daEFn1raMPS/ZZW1N5ryLfSbyud1EBGfS58x52kPvfBnob6npHhYkgxQy+0Wvv9C4xvUg5026A6K8CBAjJeQ62QkxfbA6AzB2BZgOwKeZaHZMZQzXBFMlwVXLMRLBalVkmIdZkAQ/xl6V6WNiRK4TXkdVk1Lc+2FaD0WBiQKFpqDBgDxoAxMCYM+C63urro3BicPV6Gty4C3AWB3e4LrsqKmc9P2ToOnvhbWYO2ApyVBrYqUk6rv6dlJPlSdDUTs7mfRdfrpt0vQSrzfSnyDPhpQPLIlpeYoLJ60T6ZZ2AUqc+cg0UMTrqp968wWcpr0RzkCPNwYaleJpVucHTpt5CgIoWg0ToB6CL9yECl/jBk3pRCVloUYJZdlfpKgy3axFUCqdUmi0FujraFx8jGpfaBjfwmbpzS3nfg2/WTjkZ9Ffrlw0aFkhRq1K+wCVzyeZchyTrMDCnWULE+fHxB+UlUPjPbVoB7IoIDgSSNhD8NM0/kyozc1smHfvjwTxVZACP5uflA5JPUCR8kOg+4GPgWcAaQKUUB0lHdwgFLkL6ddIX+igJcQbmmQpL6mV7GX1GAHGneJpbOivp6Cgru5jwddYX2RQHWtYl5YXu0E1Du3IPuhBQFKHp1pJdWcTLyFwu+vejrGOlqVUYbaZNE2pu5MWAMGAPGgDFgDBgDxkAYA75rQZ8HXtS2snbn67zlupdD+itDoKxHBjkOCWKEdGWi3IiY9q4rLhIoJNblc1T98LcujtX7m6sv6JG/3/QFXVC3Ddplo2el5xf4KN0cu6KwF3o6rXRv9SlyFXaJx53sKSToFE87qzYF+CvryQDXm54DKkssgbeg57rWlUIG4SPvsdTB/kgXKmdCqhzvl6GNedY/m+aRNCfsSIJorpd4z1lxcrZJ2zzVjdSpqmnBx8DYGXgSej9TRxCQ5y/YWwFccq1DPggnNwMkRmYb/c7iH0cuT8t85KRx8W0p3SkfN6mCtbSTmvJcy5R4uYF2V37fjvx9qv041SbZ4BkohnmpBJSnM4ptfPHneUDiZ3pOQaBGYAFBRc3BBIYcA7kFp4o82YeByq430mNZeaSjs+CiGOD1m75ui3JmxiPKgL7gzAqRz7McAczMUuhZ/V0Yz1/LjqkMgUnqbH5Zp2OstwFi5/XjI0DmJ5L0+EIuY+RmXduPQ553SasAT5QItsyEWsFNCIErGI5wgTNoexXfc8i/Amyo6vgC6VmqXDkbS2BSuec4Qy5D+ZbRJJ4L0M7XPrIkQQNxKfAwUFnGlUDfgL+ZVn4X6YtKIUnzkrLIPHF0miKpJn26kJaxaPLICmcrJQHmMlOnzIh0lkTYZ+2GVV3ymPYNIEmBZEJ8u7p81qr05Yo4c9MuCXRjiS3LlwVOh6MkdcbLkesAnkR2ToFkQr6Dv/Kdm7QqPIklMLzH5i2+rbrg8tT7AV7GLAbYxoXW2qSPBGpyuGTf6LJ9CIGJjqzneXkLoufDtOEZA8aAMWAMGAPGgDFgDBgDxoAxYAwYA8aAMWAMGAPGgDHQIgNlH2VYvcWYuuyq9vcBd8No5EnRqZLyl7zSUjQD+SM1H2+rfcuUjrBdRdnTingpHZXMutIGY64YPF55HGLMx91d+H0lcAtQylfIZEZJ+rm2qZaO2+43pj/9OpfE76bTMzoQvYzm8OraHYaHEGTBp2gl5mMdy81QfkO1O80TRbH1tXnrQp5M8Dn4JSr50nKbshSd+XbF41G/URqI7yy6BG0cL9NZwOOA6CPbjORtkR3RpbS3nfpGKzHMUY0km/WuiK57DpB6Vz+z7NtSWlk6z9Lj66Rra4MW8svQxz2efnyx+upoegVwKMDPFZwFiGTpS3twSofiNNi4RYNt0zhdYiV+SSWkA1L9a6UiTV09p3m46E7hYY3xqOHJgeJ+HOjDk9UTfzlzRUSv1mcFxblOg7eINm45HxLrjYiN+ic5MYb4mDDNOraJXzqkZOktRlvVs/ANsP0YndckEus+8EffeSK67riy6vN85bbRoTh1FbdK20SnSur6jCnvq+Lh20lZwuelGavvyVUZQ5ZtcH2Rw5nwWOWDE3kDDA5SGdyCvMT8U+T1Mf4Y1UYdn4itr61SXe0OK0URZnQp1CVuX/rfHHein6MS1lS7w7DuK2tPh+VvAYmf6YMADzt5Ivp5OkFttTsM6r195eDx6mNE++H2oEcjMHIjFq3GcHloY4BT28TDQNEMnOux6XvVwj4MMPhg3tWgi2ZgV3GNTb9GYOSmMgIjCRxV83kIbOmoBmdxGQPGQG8YcFdkfQM7AJVT5YKaT6FdBshvLD4+VqgrIvAwaO+wgsXUKCRlh1l0LyzkzS/rcMz1TgyNv4hA8TeuX26T+BtL+34hzfHx+Rc+ZduIlJ2BjXTeoNMj4Xtrj/+XUHcuUNsP6n2bgRxPAgh5XNXh4Uc+8cSZeDowF6hF+jYD5RN4vBw528PQoajbCTgK+B7AjzNGSQyBp6Lnqk8lRAUN48Tj4NNpXRZ5bOYvdc8A+wJfBhIgSmJ24Sujeq5uLN8DdD3IT5Z65nEjJ47idaoc/R8lYmbgQwgkUcF0meXvwBT3t5usPeR66O4D7AX8EagsMTOwcqcNGG6Y+nw0w3eCekKEG5/CH8yipC8E8v+GUNabTAZ/Fwxyyz8FyirREzulFpaN2YXDempW+4XU/WpON1mHmYNSPd8TWo6L/GIMgbFn4SQ/tOBWnn1XBw4G8k5wa6Nd7kweRj5KYnbhvCCLgso6kxbZ5bXzDoPyXmDvidzwH5LHyxfKnyeTuL8xMzBr94iLqLr1GzD9OcDbuP1TLETKWcZjHnfbNQHKI8AtE7nIPzEERnbdiPn98Pp94JTU+35ICS3XoHCzrojJ941AcsE7jQTgNSCv87gaw7MtTxhy+YJsPdJHAoUZHmd/L4Wm0piTSFMxjZVfIzBycxXtwnfD/3ZAEtlPb83lJjxrgPeiYX1A7jWz9PpS/xIGcgHA7/KbGAPGgDFgDBgDxoAxYAwYA8aAMWAMGAPGgDFgDBgDxoAxYAwYA8aAMWAMGAPGgDFgDBgDxoAxYAwYA8aAMWAMGAPGgDFgDLTMwO7oj2+Nvg7wLVNDfzjgg7q/AeYAIyl818cm3NTgQL//PzKT0Z18IxOYBRLNwC7woLfv7dEePQ7s7SQPKVbVHgNFb3e1F4n1FMIAt9uuAF/I3xzgy/e8Bn8CuA+4EVgK9F70IZp5k2YYeBvc8t17fsjA5byovAg2HwVCpZVTsB0BQzdLu/o7ozve6L3D0+1zqLsK4LcLngRWAWYD+wPvA1YCKLOBK5mB8I72COBNFvog7t7XhzGNwhh4bX4T4PLLTzLzY0JlZTco8pMurp9PlXDQyhGwRBy5Ku7AcpVVI/foFwDXvs/lW9X487Iz0cjrN80Fj3S+G8Z5qS71mc8SHkn5JSzt87Qs5bS+1xNwOgZ5rUOIJqeP+TMKNrg0/8Lh5cfS4Eldnjwqg6p1kXsR0DZ7DFqHM72egMPDtRoywDODniD8JSLvOl3r6nzWEfEEx//PUM6SViag77CeFZDVN8/AbKeLe1HmnW+WLMto2BT1F3na/unUzXbKrRfz9q7Wg7EOp/0LHPBIJnewOyK/FvA84JNZvsqcOn75Twsn+FiLPuwzbxLPwA/hQvP6h3iXEx62xF8uv2jfW+f4buUUnNN/qSY9mJAJ+G54/x/g2rdZPqfUCLtRus3hht8oXS8ilKMdf+T5MwX+ej0BOfazAX6Pr81JJ33xWmgzYJRlPoKTeCW9D3U8LZcRXl59BXB/PXkFdVyWKZLeT8AiAqx98qjH9UOZgG76ONquBng3+yuAR07+JuzqscwzzslAWbEJWJapKaJ3CMb5AOCbXFl1vOZbALwTCJVWJqDdBYdulu70f4euCRFuO95EzAH4NAxPtXwahnfSjwFjITYBx2IzeYPkhLsnhVdhHCptIXoctlKPY6z7CLhHj7maakNz1wh5nTlyci4iyroAtvp+cfPFJmaf/OQT43tVGJ8AzAN4MdxncY/wtfzrtBEm7CnE9ifgYoDLO7VLHROw9qBG2KF7GjL+IjeW3YREEmjmcQzYBIzjz6wjGbAJGEbgMqWu86rassaAMWAMGAPGgDFgDBgDxoAxkMdA7DoWF54/C6yT14m1jT0DSzCCSwA+AFGr8P3cGPkSjPnSjEm/GeAB5l3AXXUPM/ZhhDWcgBKnbMXxZWAThM6fWEVWl0ydqa0D1smm+QpmIPYIGNyhGUQzsD487ADMBTYC3Msofk2B12x8Mprv/TbyEAH81iI2AWuhsXEne6KH/QB3svk65mXRNik+nirwUf1fA3yJaaTEJuBIbY6hYA5HzfZDtdOm/Rt1twP3Ay867bxZeA/AbwTyUTnKBsDnAd7F8g26RcBISFcTkKePg4GpsnzzLMZ6JfAQUEY4YU4E9BHvKZQ5eZ4G8oSTk7gmVdoN6YcALrlxex8LPAjQV+fS1U3IVJp83Mjc0TjmMsLJdxKgJ9/lKF8IuJOPO/KpKZj3yW2oPANYrBq3RP4YVe4syz2iCzmvi07HpM/DnDj5KuY9Tp0Uj5IMUuYTVXazP0EFj6obpw2bI90J+Eda7iTpagJ2Mtgx6HQ9xMj1N5FnkLlDCiXSJNXJOuUvRPuRys+2yHc6Abs6BSsOLKsYcA8Ir6o2X5YTzSdZp3zXn9ufz1ejdZ0H0Ojoxs/5fxAyPx60Who61/l4RHw0LbtJ6KUMT7lauF7YqXQ1Aedi1F3ciGSdmjrdCE7nV6N8iKrjXev5wMuqrkr2AzDSE5D+bqjiqE6brk7BXUw+8pZ1aqqT01hfd8ABr9VEeDT8GrCrVASmq0D/eIBLMSKvIfMjgB8v6lS6OgKGnjo6JamDzq9Hnw8AxwGcQJSPpFiElGt8/P8fWcIlHC5E7wO4D4xwLZJrgG8BnUtXE7DzgY9BALzuOxPYAvgEIE+jzEGeR7RQ4cTjeqJ7IxLqp1Z9m4C10tmIs4fh9ezU85ZI+XWG2cBKQJ7wGu9O4Gbg+TzFLttsAnbJfnjf/AmN6I10dRPSGwJtIHEM2ASM48+sIxmIPQXrRVOGkkTGY+ajywCXbmoX/cRFFed3w2g7YGYVY7MZGwa4gH8J8PrYRGyBGgPGgDFgDBgDxoAxYAwYA8aAMWAMGAPGgDFgDBgDxoAxYAwYA8aAMWAMGAPGgDFgDBgDxoAxYAwYA8aAMWAMGAPGQGsM/B9oP9siQlbJjQAAAABJRU5ErkJggg==;fontSize=18;fontFamily=varela round;" parent="1" vertex="1">
                    <mxGeometry x="600" y="130" width="80" height="80" as="geometry"/>
                </mxCell>
                <mxCell id="saldxAls0CMVUxLMnOsH-18" style="edgeStyle=orthogonalEdgeStyle;rounded=1;orthogonalLoop=1;jettySize=auto;html=1;endArrow=blockThin;endFill=1;strokeColor=#999999;strokeWidth=8;fontFamily=varela round;fontSize=18;opacity=60;exitX=0.5;exitY=0;exitDx=0;exitDy=0;" parent="1" source="saldxAls0CMVUxLMnOsH-14" target="saldxAls0CMVUxLMnOsH-3" edge="1">
                    <mxGeometry relative="1" as="geometry">
                        <mxPoint x="270" y="320" as="targetPoint"/>
                    </mxGeometry>
                </mxCell>
                <mxCell id="saldxAls0CMVUxLMnOsH-22" style="edgeStyle=orthogonalEdgeStyle;rounded=1;orthogonalLoop=1;jettySize=auto;html=1;endArrow=blockThin;endFill=1;strokeColor=#999999;strokeWidth=8;fontFamily=varela round;fontSize=18;opacity=60;" parent="1" source="saldxAls0CMVUxLMnOsH-3" target="saldxAls0CMVUxLMnOsH-15" edge="1">
                    <mxGeometry relative="1" as="geometry"/>
                </mxCell>
                <mxCell id="saldxAls0CMVUxLMnOsH-3" value="Action" style="shape=image;verticalLabelPosition=top;verticalAlign=bottom;imageAspect=0;aspect=fixed;image=data:image/png,iVBORw0KGgoAAAANSUhEUgAAAKAAAACgCAYAAAH8yFe7AAAABGdBTUEAALGPC/xhBQAAADhlWElmTU0AKgAAAAgAAYdpAAQAAAABAAAAGgAAAAAAAqACAAQAAAABAAAAoKADAAQAAAABAAAAoAAAAACEJDuzAAAS+UlEQVR4Ae1de6wdRRmvllcFSgFFKLSlyBsEAhqMUPQPjIJaICogEjTxAUKoAcMzBk5RXmKwIuUliUBVIiIvAaUIFEhBBEKlgCAFL5RneVdoSwX09+vdr8ydO7M7s7uzZ8+535d8d2Znvtf8dnZ2dnb23FGj+oEWoRH/y/idVA2iAyd90Fn6fkSLs/oOUjJp+8FkRdRZtsHE25ScGDo5daOSgS5OTQcSvaQiE5yaxqg0wdAsbfQAw0it2dIRdUqEUeiMRoU3zhzMRkpFk2dldbUmhdGJt8uNaFjWyZh5ifI9Htjku5a/DsEPZMI08AL4HjDznwWzzqeLKqWeQ0C6CVM587U24gxY+6/Pos8joyGx/iSw9LkO8lK3CvLvgpuln9bp7tKSxjo+PcHGVx9ULmC7hM17ipkvfVswI/blGYhZ5wosuqx2g0MisDt2Z0jt+xMkVxTUZbltwzIRfvimS9Rn3YyIMp1MmanU+XQzUXdC5VfAa4IfAYsxZJUUgZYgwF55uyeWo1HOerJzWuXR62oxb5H9dakVjT6hrd0ZyDzgOTcdT7kUz0DmdTmISUODi7Hpku2gcLSrgmU+BBmcr85nS8pDdbeAwjcyJV5Ep4iBkLQIPU5JzGmJadPW5ZTFLjPla8/TmW+elBdI2brSDbAdzoQlsk22nF3PY6+Mr5+tDqUTMktUnp7l85KlqByTJ+Cpm4jyp8C+WDxqo0bxOflQb209FavCjBe9elyUt8Ird1l59XSaDCwpajROHp+uDfVbvhoml4OJDsfH+8FKioAioAiMBAQORiPlziADuKRzug3AmVlwvjvKq6iXYPkI2mqSQFsdJINjoPfFRBk6SZwCo3dYhkWXa1/HWHWcvLILkBiUSTzOW441ZTVfGQE5TS5DHD7y6k0dn9w0CK1nCjryHUdZUJHdd4KUIoU6kN8oUmeFONG7soxiCZ1Ono7vauIp+2qeYlN1fK1VN7Fr+Pqk6atjHsTkj4Kw9yWfYcjVR69H/bGGzELkDzSOa8nOg5XDCiy5gqOKq5xlvrWcAjfuaj5M5w0NriDEkq+O5VNFKGW6Boz7gtgNdS97nPNRlJuafOSz6ZPPLefpchl0ldEQgyPnkU93VJmr+PeZJxotulp5kZDK+BnUrPGvF4UCHw+hfi+fjA+BjqFwNvKLjWNXlovga4PLrNaHnIlhPvdEyeHDStMU5CLvu9X9FbFskCaeIVYL0cvrvLfAVGeIuaEHdl0uEoaqdCt2nVZTaIO60ojWB7d1KCzSH0LkXa1+A4rjwJuBDzGMvI386eC9wTcY5czG+LRUiw/nQoSBMoBW03xEx0DJfDzgFb87eDL4PDDnk1KPbHdpEtw/D2agZJ52+0EeRUqKgCKgCCgCioAioAgoAs0gMANuZK5YNX0VtsY2E3Z/elngOBlf6M+mNtOqay1A903ptu6H03kIdseAgPmp6MOGHJfR+DgYQj+DkPmRAx+4+eBdRL+EwLQiIa1XBBSBEYVAmTGQS/4za0aJYxrfXcSSvRgZqy/yHcmkTvkWSOZtqX01YX9LOOmATy7rzPvphsfg41l5mZ7rMdnVYn4ouBZ4YzA3nPBVYRTlvVuyDXFBl3TiYNLYXy4obwiu66Rxc6DryWWr1C3qxqU7EY2i33dSNy61/VlZQ7hHvwoRiBhAik4anzJEpvb9OFUaauvygZ2B8gmiDMUCRx/Hg+nzOh4UkGw8oXyte4YK/AZXvwZJBhdL3OlKvTKXIPVifZpAxsbKDTOx/mJ9lJI3GxXaOx7MGhNzWZbp5WaDypwwUz95PhTIMRl4ob2hKnDS8NYDKIFy4Ofl4iNpCHf9FREn9nm2ivSlfn9k6PduKQhNY+ZWO8EoG++ie1HIZaWqtB8MXAXmJRyyLFbVn+hLb4/BQ3Sj0g6kyfx8tV/oGTSEAH6vqQZ14IjcDzQHjSB41zTdmA4ckjng9yrJ1Oz8Kg2ocs0fB8exAPJL49MKAubYN69AJrSavWtz8JOWgox556L8SKtOD3MQkK13sjCSI6pVJgJcsGWvI9e66lLlEjYDNPPv4sC3R9yUkzxXXGQux8tpfanwpOegnM/mJN5BuZYXQutC6PUQwTbIcGzkZSJnvfXbbtsAWl4MXPkVMCXl6jY/nS1LJ0PxsbLKva7Hz8p5+QmYZVIOFZf1OhAavyKgCCgCioAioAgoAoqAIqAIKAKKgCKgCCgCioAiMIIQ4O8tyIue0DXBl6Bz6AjCyNnUULCK5Pja4BKnhz4vFGD4ksf85beiZvOF021g832L2OJrA6VIBI6AvA0mL3GlEggsgY70RqadEjZGvMpqQIAvmwRIbiVRKoHAz6EjIPIST7GBYEVYdRtm0CFk++2EKEGG9qdbsmV9WmbKHcZswQjx8GSA0I8dMgOOMlfRTY7CkM+z9MbiAE6LFAFFQBFQBLqMgD2dCAnncxCaHSIYKVMmlk6kD1vcNS2yZXKPy0xjXFOJXCcBlWcEyLhE+IueVYgnbaMqBmJ1+fDOsxY6eY2136Q8d+93Mi7tN7YH8td/SGcPJj39d4ERPfdPl6KYcWdNeOBud1KM3qBGO//uhLD2Bb8FPqtMiDE9kFtySQMr/vbHn3lZM9g5SlEMgOMyD5NLeWqvknwysW2ZEEMvRQLNdTZSqM6gdLW/o6HOD6rZ+ydUM7VSu7MyNzRTakoT2gNl6sIP9Jqkn2TO5tTodLHHVp0+hrmQz+qPHlaTtkCmTKXvkmnDC7cuDQnXcEvK7ybIp11uqfdLi/yynie39VTUkJAGCHi0xalDEX0RApQdyBGUK6P1IFYF0ASP+RB6CkL0yx+WyKOeALEKgGXAI2AxPlsPYkxjzN4y1QAitOdRfz1Dj8ch1GoQCWCZKYwAHwMewfotmLqn8iCCBMQpEToiSn+hNzfRSZ4uggcGxobFkADPiXQomUNFyI/2mHbXxgF9+uaIpmzjeekVMSAKgKHBmuDF9nb62BRMnwPgVlIMiIehBWzMHYEtqQoe3XwFTJ/X8qCtFAqibBLaLqAhdYBHN78AE8ATedBmEhDzBms2hBxCIlvmsjXty1i9uVnY1jzB802O+QuZBIW9MIRoK+SppsiWnIgiudbXc9xjYzgONkmlAVwlIspOjmxeXY7asCqZv10wrCZdwVGZ6dCb1pBIYgDkPjvX+mHeeDbEWcDBJZAJ/SGdAHNBIvz3GqSDB5O4vzGry9vANAfrpeAz49y0Vno0IuONjRSDxaAG/rp61MpKK/PP7HiMVd7Lh3dlwV9UthGxqO8PR3z58gz44rJOW6THmwcpFodBLfyN6YFUuiLT3ARpaaeZjW4nj2UB/KVKILEA0tfDmcNjqjjusu5H4H/LLAbfnDQoxLK9qBNk3S1UpCuXlVs7vtTVRtm5z5dk3NFfmsr0QDorO0+bGxDpIwEyoSL3OQT5SRhB5YmqBJ7Ddt8XcbFAnjr6aTbRyIn7mAHeZY147CMnGxrgvdBH7WqkKWbPW9aIxz5yYo55ScBz3eKr4hczDaGsORPoBDg3ZUJ9vQi7vIxrJzP4uoyHNor+jrOcvm4d24e3WgV8pCyi2RBIAl6R4yr186FMIIVlyaiKzRGny22znPELiEyvHnEo1NBgLs/bQHINLnbXgRkKT848MLeOjBjaGy3lNmGzR0p+Ocq5OjITzJdEnHrwSWFXME/AzeCXwPaJoP6IpIvQah+YAmpR+hxsfGhEoudoNOdrvPH8B0xg2dPIzLN3Pg3+I7jn7qaIWUkRUAQUAUVAEVAEFAFFQBFQBBQBRUARUAQUAUVAEVAEFAFFQBFQBBQBRUARUAQUAUVAEVAEFAFFoGEEUuztbbgJtbnjhpuDwHuAJ4L5HdhYMLeHcQsvsXLhxd1P3KfHf0vGTT0vgxeA7wZfA/4XWEkRWIHAafjL70Oqbqkr2nKXV8/dZtzs/hsw9z+OaHJd0f0KCD+03zqncew07JhvgNlJnwU/AeZ2xQEwRzZujmXn4Wi3DngcmJ1oMphfzZIngceDOXrypyhCMaZ/jpbHgq8DK/UhAoejTbwt8quUbmwKZoc8HvwwmJ04b6RkHS+GaWAlRSApAuvD+hXgt8G+Tslb9zwwR10lRSA5AhfAg2+UZGfk7ZodV0kRSI4A5678lsg1OrIzzkgeQSIHoRPkRO5zzU5B7SXgzXKliiu5NMITdFKBKD9Z/Bp4IriOL6eXws7t4L+B82h7VF4OZlqV2Fb+6jaXhXqCRrc4Sj4JblNDfKvDxmfAV4L5FOsjyuwAruuiXBW2+IR8P3g52Ee/RsVuvsrIcrZ1LfDsSD0VVwQUAUVAEVAEFAFFQBFQBBQBRWBkIFDXE18IWvyJl/3ATfoMiUtk+G+SzwWfIAWJUy4v7QPmO+VuEN973wqe2w3n4rOpzsAX+BuI05anOyO+BxqIke94uWbXbXoQAVzVrSCa6IB8oT7WaCDXxLgRgFegUvMIcJH9UPBHDdfcv8jtYY1T6oXol9GidY1WLUF+DJivlJS6gwCxvw88GSwbGzgSfxhc58/tw1wxpeyAj8L9BCMEjnzsfErtQOAfCGNbMF9BkjhFWg38BA+aojreebpivQiFWxkVvOrGG8ea7T4CPCe/Ai8zQvk08nmbdg3RerIpOiBf5n/HCu9IHL9ilelh9xHgdq9ZVhjckMF3yo1QiocQbmc3J7i8FdexqaARQEo42Rs6F4LfA38ffCO4TbQFgvky2HwQLIrv3xC4tEiojnpuEa+TvgtjZufjML9DnQ5aZmt3xHODEdPFyLdtqhHb+dicTfmnF2kRgmanE76zFxsREfN8o61s84ERuipaMwJ84uVtSDof8/KYX7OrKHP7QnphxntFaeYL83YrbWV6e774sFrGInExRqWKCJwHffOEvFjRXlX1A2CAO4PNmHjC66AxMLIEbNreLtIwYzH1GauOoJEgmuI3W4CealY2mHd1PJ5cltdF9sXGd8hlqIlYy8TVkzr2Ff35hlvR1Mn8ONpljlxv4XiNim1tKvaKYbZbnR/EmCdmUkPhNn3y7rTayfeqdVHTbakr7lbYsedbfK2Tkjjq2E/ddd9q7fgPQoF5kfF1VgpydUS2tepIGxKr+XDEfM/QtxHpaxkzn5qmwIHZGVJ3vtHwx7c5pk++ukpFrk7INqckrgub7eObEqUcBLih0x55U3XE0+HLPDmpti+5Oh7bNDUHh7qqNrDa2O2VjLraldyO76SxvA7iGqfZ+dghzG1mdfhI3YaQGD9ltZPbtpQiEEh1Eq9HDGYHPC4ipiLRVDEX+XXVT0Oh2U4uNymVQMB3Usu8ceBmA/OkDJSIx6XCWJqaPrj8u8puQaHZ1v1cQloWjoDdEReGq66UHEDOPCnskHUQYxG7qeatMXFuZMTDuLi+mWK7XkxMI16Wt1rpJEz/1MeIzLTaekYTbU2xH5BxHwKeDA6xzxP7DPgP4MXgthAfMvhjRlx+EZqITJlRVPTbmk5CYANGcO8iz+9Ekp+PFEMsn6Q2A4d0PoitkONT5hQetIj2QCxm5zsFx/3Y+Qi5vaT0Q5Ql73x0HNpJKBtD+0N4W0Ph78jfaBxrtj0ITEcoJxnh3IM8B5FGyLzC63T4GIx9ErxqZnRjpHxX/Hx2rEk7EOCT+PlGKG8ivyN4uVGWNJuqA76HqB8C7wqWUXYr5HkL4+s6pe4jsCdCuMEIg3PxT4A5H2+MUnVANuBt8ALwLjzIiFfXs+BXpUDTriDA70T+bHnmYDHPKkt+mLIDMnjedh8F88oS4kdKnODq7VgQaTb9AdxdarjkEy8HhsY7H2OQ2yPzKWkcjB8BljlhSl9im/OYe8HcqV2FeHJ+BzYfqqrYq0uXt8z7wQeAnww0SrnJhuwbyG8B5nJTVyj1CCiNWobM3eCdwKtLYeKUbZsIfhzMkbgszYJiY0+FEUFy8BgPXh98dYHedqh/Acy1PSGOfGPBfPBQUgSSIXA9LHO0NHl+Mm9qWBHIEPgSUq5GmB2Px/tk9ZooAkkQ2BBWeVs1Ox7znC8qKQLJEPB1vCXwyIdAJUUgCQK81fLbDXvE44Pf1kk81mi0qWWYKiFPh/KPwHVvnOASxKngs8Au4oaKqeCyowcX4ueC7wC7iPsKLwRv4qqsULYUujuDH61gozHVXuiAXC6ou/MJwBw1JoEXSoGRHok8lziq0jkw4Hrzw1defEdeB7EdD4B3qcOY2hiOALeG85Zi32Z4zCc77rRZBaykCCRHgLdj15xHOic7Knf3KikCyRHYHR747ap0PlfKEfJp8FFgJUUgKQLfgvVFYHsB1tcxX4HsXWA+6EwC100TYPBE8G3g18B2XJzfrgNW6lME+Ps054L5EGCffFenbLqMC8a98CCIMJXqRIAn/TDwTeDnwNw5k6KD0ibnq5wmzAF/E6ykCCgCioAioAgoAoqAIqAIKAKKgCKgCCgCioAioAgoAoqAIqAIKAKKgCKgCCgCioAioAgoAoqAIqAIKAJ9icD/AUj0NZsukPYLAAAAAElFTkSuQmCC;fontFamily=varela round;fontSize=18;labelPosition=center;align=center;" parent="1" vertex="1">
                    <mxGeometry x="360" y="170" width="80" height="80" as="geometry"/>
                </mxCell>
                <mxCell id="saldxAls0CMVUxLMnOsH-7" value="Issue &#10;Template" style="shape=image;verticalLabelPosition=bottom;verticalAlign=top;imageAspect=0;aspect=fixed;image=data:image/png,iVBORw0KGgoAAAANSUhEUgAAAKAAAACgCAYAAAH8yFe7AAAABGdBTUEAALGPC/xhBQAAADhlWElmTU0AKgAAAAgAAYdpAAQAAAABAAAAGgAAAAAAAqACAAQAAAABAAAAoKADAAQAAAABAAAAoAAAAACEJDuzAAAP1UlEQVR4Ae1dW+huRRU/XfR4OeYlfQnycrKspJcyKhBfggrSXqKr1iGIepFEisoyHEuyxFKCotTIh4PlJQhSyFToobDQIiIJRcVTmqRSHjl5rE7W73fcs/+z59tz23tm79nftxas/9zWrLXmt9c3397zzZ7/tm1CEQgon8yLrMb/WWW7SHllVJp5o3orG1JISbUlvpp78WrVNip1sS2uUPFeuzK1TCVO6vPQKRzTYCu0yzE6OjK2guebVuVIO52NgpbfZoZNW2kI+rKUvxD8U/CDYCcpq8UuW81xxU8YYjEK2/i1MdR6rkHmg7qQkroUUsePEhS116LNeDp/Hm2HedrNJmUWJL/uCGS73HZgu2ZqXa+BDToQFICm9vPaaO3tk+Jho6dNqJDcS6q3dkCl7eEAFW0XxZyt8Ett82pGrVat1tgKvwIR3ZHT+6lgnep6VLlJT1/KLbLSQlmbKaTrmO+Q6pTiC95+Z1h67Bi0mg8WDyq0MdSCZ+vMnOlBD/VF8TlyUNAn0LTFykWoEpGNQsCOws9i9EcUQEDl0plNkeHQKJ2umYb6Y6Yrw49ONtRXdaQ9BZ+Dnm6jm/gEcn6Mlpd6hOz49IiuNIX67jZ6nIj8n41yJ+tz0BRUTcFO96L+KrCu12VUdUh1SuHCcxD5Wp+YsirtstXsLJr9dJ6pziN7MM8y70hsUnaFLjsbtMCANFanKdfm5/qQ9I2zdaqvcUxdCcWtzhQE206e0XD+G8r/6NOb6mCMk5xihvAxfQ7GTjO6Lx28GMx+14IfA9sU+hax5XX5Jp0x01QH2fcyU4GVD03QlnhvcYhPvYqkUhAQBAQBQWACBOyZXxWw+S3o/HsuvSUcHKUz5W4mFwhJenxfzEPvSujA0+BjLU9UUz6A1HfD0enmc5CCdox2OnsKfYNTjbxOPd23mua4xN+B+S9sueDPzeHgE3DpUL9bW60hB4c+X/TeHW+Z3XYl8gr8SaOuN+uLwaHx12vIqtyHsgKfZNWvFEMIrnTIXLEnpM+HoO6rmoy57qLrXGnTpU20XFsRyDjlnQ0Bhb7mVJ0ded8l7gj6PLDa+vqxjmwuFOk6VLsp5hK7e8e3qB7RvroVsakQXDFsVTidjUGQl+Vo8G6w3jyiFbpSiJYhVUBtqs6OfB+CHYEMDt8HHTFXIYOpVRVqtWp0TUdnH4KmBS38J1TeaDZMlfd9iumDavi1SD8M9tHQGwvdr1d3yEHd6VJkXqMLnpQ3GEPYqTLWQaeC0g0pDio4Q56UQh8S2xlza4iyG1FmPGWlVAf/C+vK4QFjLzulXOLsxmMUjh314TDyuRhDCTL3QvbWBHkRFQQEAUFAEBAEBAFBQBAQBGZBwHczrWbxaJhR506+Yerie8U8z6l4dbNI0r/YN6+yOxgDoG30SVQcb1dOVH4V7DwcsKWs9qJLckMA1OD5Pv7WGLIUuZzyEDhkV1nWLkGZdQ+AbwBnpepXPDKM9lLo+CuYy5pnZNDXUbEJAHLAfJ+WlP0dqE0BkOAp/gEp8KCXk9nZpiFzICfy34GzL/Hazlll7n34gFWXWlTo8BLwRWDmNbl2Met2ZzoEQH4L9u7Ddlqpq4FL65flcmkIgLls59ajciu09H0d5f1W3bZcAOofgLX+3cjon+N1XUgm1K71uFLlashQT938+YJph4YCqKBlH5h7rkh80SpEIRlfu4LyvWCfTMh+kfahANKZI4t45FZ6tLupbYmJ4hiZVmEoMxTAZ6D4JyHlGdsZfTziJUQxEeqTUTCQFOlDAfymNRIaNqnPCWUKIG/L+Np9g7bUji7GRHprZCiArYImo+yKnnJIJtTeozJ7VWykt4ZzAdgqnDmjLPt2lLPZJ5Mc6b6VjeNgjDuat4NrJu6ju7mwg6rRr9PWnC8C+TbK5a1kmYxq1Oq0jJWCWn0AxpjtG3jSeyEOI7Uv2rZulwCQoGpuDSVmal+0bYdTYjmL79WQot+teUF8mX9LAMj3fvgcfCj4/GXCEu/12I+wy9JuNOwAfwaswKTHwU+Bf8zCulApAIkPFxsUMw2dhDR2EXYxi7YlAdTA6XSPzkSki1m0nRJAH27K11hJ272V+CFuCAKCgCAgCAgCgoAgIAgIAoKAICAICAKCgCAgCAgCgoAgIAhsJAKuvTHcF/OphSDyLPy8Yi5fXb8Lc1PRUuiIOR11/aikd2SpOZ2LsD27f64IjPBdRIiAADgyDlwfYZfanWjgK6dzELeFnBAwvAvtpxgy3AlxNZg7VYtQagTyHbm5SG9589n/m9XIu4wLwbzwRSg1AvUOdtftTxEnoTR2T83PIEvW9FZk3gX+KFiBs1NqBGZ3oLDCX0P/I42N0EGXg1xZdwAJyvUNMnxjPTttAoAmaKlTltm3N78pAN7djP7cXhRGVG4KgLc3GPEW55AReK103RQAOfB7mtF/ESn3b2eh1DmB5xa8Hxx7W5HFyUxKboOeV4N5XAHfIHgezM3wvwLvAQ+i1AjkoQ8EcWp6Gga5b3os8ankl40Sjp3fzB9ryoOS1AikEYJIXirdCcfJXAZ7BZj7sQfTEAAHG6usIxdi+REeRakf4VHG1rHzukSgKnxx+PLjt/ts5ACQqx16kUHbUDrTpCGZULulbvKicxktB4A8DOI8Y0h7jbzOhmRC7VqPK1Wuhgz1Xt05AORE7DWC9pBMqB0q6qQhXyL8uVNNOBx+vKe0lzS0IRHIO3kSF1WneCKx59eDxnv+xMyjMTI9qt1VQyJQ95kCPLfnqy32wTyuudjs2SdjtgfzQyIwqHQmgZh5NEYmyX0dTSmdfghhPptORbthaHSkRDjLj7eKkOuIDInA+6GBPBUxapIPxBngXOxc21E9BMCOAhR45WzjyhIKyYTaLXX1FId8hG3vc0zeMTpsu1WUc0RgzMQckgm1TwHWbhg5J9VQjghMtVmr/KC5NkcE1gJIzDwaI5M0HheA90HL6WCVpG1e4ZgFiRiZpFHwccxF70MDQayZnoNz14B50lwpUo1inXbsuCKQQjc33OmQsaAaXTrNqHo6VfIlMhJrXwSGVO+CwCmGEBcX+LPhXqNu7bNjIrDUZsadQJ0XYw7mbx9JNCYCS21mrH0XbAfgMRHYUYRCrs2M+rmadwhTsj2eqHJOAGnw+sZqkc2Mje6qktwAmoMbMz2YeqrOlwCw2GbGGpEsAWCxzYybAiDHeU8z2KybGWsEsNQ8dRsGm30zY40AlvgI63EO3cyoN3BOfSOt/U5KS0WgduJOZMgpmxn15k1uJZ6S+Evjm1INloxA0xe9mZH7kmOIIE55E01bx4KTd6tOBWAMaIuUqQHA0tNI0Qszp/M8l/kM8MVFR1hYOf/P5Fz0AAzvAHOnfM3Enw2+AT5Qs5PimyAgCAgCgoAgIAgIAoKAICAICAKCgCAgCAgCgoAgIAgIAoKAICAICAKCgCAgCAgCgoAgIAgIAoKAICAICAKCgCAgCAgCcyPATempxH8193Ywz8M+LLWzyHcQ4KZX/melu8Alz8voGK2pkBqASzgApSZ8U3zhCT08H2WjKPXdhtMtdJRVlmIaAiZ+xHbjArCGt5PSLplIrxUCEoBrdTmXN5jUr+AhI9yJTpeD3wE+ZoiCBfXha9o/B18ETn7buGecfDX9TPCJYGJ3CPjfYP5r1r+Afw9e9MNL6QC8EQBN/a4+TM5GDBKOl8zDHvR5BcgOogvQa7vVk+WjwKeAz2ra9iO9BTzX/ypu3EhPSgegHXypT93pI5q3B08W0cSxjw1AfnOcDOatEmc9LttwVuSM+GbwK8Gkw8EfAT8L/h54MWc2lg5AYCE0EoFHrP78CuZX/R+a+rchfWeTZ3DyZOcfgPc0dVUn8hBS9eWJcu5uSF1nSe5CmV/T1ZMEYPWXKMrBRyF1hyHJ63q2Ua42KwFY7aVJdoz/E5lfzZpOQ+b1ulBrKgFY65UZ5tcNVjc+CPFpuVqSAKz20gxy7An0uhZsPo3zflCfvDhIaclOpQPQXg4gMOvM5rUyvw7N+tL5x2Dgq2Cmml6HzCXgT4O5fMNlmyqo9DLMGzHK34CPr2K00znBNbu3TGduxdJ/UMOZcAeYs59eL+ST8bsbRtIS5a8G/7OtmShTOgD5c9QJE41FzKwisA9V32+qX4aUE8IbwC9v6nTyODJcxJ6cSgfg5AMSg04EnkHLLxp2Ck3dUPoecOrxiL2FISAzYF0XTNXlTrQ3/I36j+C7wPuje0GwlgA8Fb6cA9b/9cweA5+m+c9XH7QbrPJYPWP7W+5sTJHvBvHkfvK94FvBUVRLAPqCjwNhYFLmKhY8NFbP2P4e16KaVJRUXUKMoYsNlxiEiwvAUGAZ4/Nmx+oZ29/r3Jo2HhgzrqlmwJ1w8j1gPvTcBr4fvE6kv7o5pphbhXUa+6ixTBWA58JL/c9xPoT8l8HPj/K8rs7nGe4wr4zykKwO6KMdnae6J3aYz1c91TKMDj7t+ToFnx5TzjT2XjRkM5eekJ3B7VPMgPY2fAm+8OXKdS+aS0/Y44ESUwQgNx/sA/N3SdJcP9K/YL3MX34l6q9LewNGGYtltepbAFopek87RQByEFfyzxpT9TNNIva572md5qcKQKcDTYP+xOlZxJaf6qY7lx+2/1J2IDDVQ4jDfFud62Z5rJ6x/dsBSSYOgVpmwFxfYWP1jO0fh3r9UpPd09YSgPVfks3ycLIPogRgnYGV6140l55iKKUG4L/gyXbDG2XkJTsOAW5p0hR7LxqaqXLp0X5lT+1F4pCB4yDwcTCPgBDKhwC3w18HXupJV8qCwi5bzVvF1BmQAF2x1X2xOWV5bpetZimWQqCWZZhS4xO9lSOQOgPmGg6/ws8Enwg+Brx2By9iTEIRCMwVgBfAN/Nhhq6yfBSYR0mcBSbx/YJbwA+xMDPthP3LwXLSa8YLMVcA8kKeDOYtwFPg2g9evBE+8pyVTSF+K3G85JvAfLm9CM0VgBzMI9aIaj540Q6+1NUDa6jVF7mDSRPHXiwAa34IuRsD59KESbtQ4Ne00JogUHMAEuJHwXcYWNPfs42yZBeOQO0BSHgXefDiwuNiMveXEIAEY3EHL052BRduaCkB+ARw5nFj5s0x7wd5c7zuDwQY4vrSUgKQV2BRBy+ub8jkHdmcyzBDRsKDFDkT7gBz9pvq4EVzgybMdmZilteZir5EtrQA1Beab9lNefCinPSqkc+cLjUATRimOHjxYRiUk15N1DPll3QPmGnIoqYmBCQAa7oaG+jLOnwFD7ls3PzAQxU1KZ2RdDQC5qsFQWX2oUHBDmsi8FuM4zTwkWsynlqG8SQc+S74QC0OiR+CgCAgCAgCgoAgIAgIAoKAICAICAKCgCAgCAgCgoAgIAgIAoKAICAICAKCgCAgCAgCgoAgIAgIAoKAICAICAKCgCBQHoH/A7M26Y5Bl6GQAAAAAElFTkSuQmCC;fontFamily=varela round;fontSize=18;" parent="1" vertex="1">
                    <mxGeometry x="440" y="360" width="80" height="80" as="geometry"/>
                </mxCell>
                <mxCell id="saldxAls0CMVUxLMnOsH-10" value="" style="shape=image;verticalLabelPosition=bottom;verticalAlign=top;imageAspect=0;aspect=fixed;image=data:image/png,iVBORw0KGgoAAAANSUhEUgAAAKAAAACgCAYAAAH8yFe7AAAABGdBTUEAALGPC/xhBQAAADhlWElmTU0AKgAAAAgAAYdpAAQAAAABAAAAGgAAAAAAAqACAAQAAAABAAAAoKADAAQAAAABAAAAoAAAAACEJDuzAAAQ20lEQVR4Ae1dB8wlVRVe2GVpUkSqsrgLS4l0FBGkQ4KrIggaRCkJRsCgCCaWSNAhBgwYRMCyISRGWLGgQYMFRLJ0IRERBKRms0WKFOkd8fv+f87bs/fdKXfulPfmPyf5/tvOOffcb+60+2bmnzZtSstbEaMf2K5c0Yk4kNTrJrfRY6H1B3lfhGzU8PiaaF8JDQf5GqVu0ItUBKQD2xnK6FbkBw2qvsfZJGJsA1vfVi7jVxxI6rXJbfRYaP1BXm9lsRk0phVumdWsI44HLgK8knhry1UObDnbRdZB5lQpBKZ3Qv+KQBtTNwZiGVicOpgf64j2chBmKvmBX72nSKWr5NPRunntolc91d7dyEK8aj+l7GI6K9XB6Cttl4b4VTfUKiepBE7uBpiuAawgvq2TKI0FyD+kym42QQXRnOgIk4huYmwjujXTXjCgZ6EM6FVkZkqh5dQXz1AITR5Jf4De6J9wSSjdr6soDqukMvrDkeGWoWj/WflJzYy/2ihDJbj6flh80mOl+9J5j+ryqtKKy01K5daEFn1raMPS/ZZW1N5ryLfSbyud1EBGfS58x52kPvfBnob6npHhYkgxQy+0Wvv9C4xvUg5026A6K8CBAjJeQ62QkxfbA6AzB2BZgOwKeZaHZMZQzXBFMlwVXLMRLBalVkmIdZkAQ/xl6V6WNiRK4TXkdVk1Lc+2FaD0WBiQKFpqDBgDxoAxMCYM+C63urro3BicPV6Gty4C3AWB3e4LrsqKmc9P2ToOnvhbWYO2ApyVBrYqUk6rv6dlJPlSdDUTs7mfRdfrpt0vQSrzfSnyDPhpQPLIlpeYoLJ60T6ZZ2AUqc+cg0UMTrqp968wWcpr0RzkCPNwYaleJpVucHTpt5CgIoWg0ToB6CL9yECl/jBk3pRCVloUYJZdlfpKgy3axFUCqdUmi0FujraFx8jGpfaBjfwmbpzS3nfg2/WTjkZ9Ffrlw0aFkhRq1K+wCVzyeZchyTrMDCnWULE+fHxB+UlUPjPbVoB7IoIDgSSNhD8NM0/kyozc1smHfvjwTxVZACP5uflA5JPUCR8kOg+4GPgWcAaQKUUB0lHdwgFLkL6ddIX+igJcQbmmQpL6mV7GX1GAHGneJpbOivp6Cgru5jwddYX2RQHWtYl5YXu0E1Du3IPuhBQFKHp1pJdWcTLyFwu+vejrGOlqVUYbaZNE2pu5MWAMGAPGgDFgDBgDxkAYA75rQZ8HXtS2snbn67zlupdD+itDoKxHBjkOCWKEdGWi3IiY9q4rLhIoJNblc1T98LcujtX7m6sv6JG/3/QFXVC3Ddplo2el5xf4KN0cu6KwF3o6rXRv9SlyFXaJx53sKSToFE87qzYF+CvryQDXm54DKkssgbeg57rWlUIG4SPvsdTB/kgXKmdCqhzvl6GNedY/m+aRNCfsSIJorpd4z1lxcrZJ2zzVjdSpqmnBx8DYGXgSej9TRxCQ5y/YWwFccq1DPggnNwMkRmYb/c7iH0cuT8t85KRx8W0p3SkfN6mCtbSTmvJcy5R4uYF2V37fjvx9qv041SbZ4BkohnmpBJSnM4ptfPHneUDiZ3pOQaBGYAFBRc3BBIYcA7kFp4o82YeByq430mNZeaSjs+CiGOD1m75ui3JmxiPKgL7gzAqRz7McAczMUuhZ/V0Yz1/LjqkMgUnqbH5Zp2OstwFi5/XjI0DmJ5L0+EIuY+RmXduPQ553SasAT5QItsyEWsFNCIErGI5wgTNoexXfc8i/Amyo6vgC6VmqXDkbS2BSuec4Qy5D+ZbRJJ4L0M7XPrIkQQNxKfAwUFnGlUDfgL+ZVn4X6YtKIUnzkrLIPHF0miKpJn26kJaxaPLICmcrJQHmMlOnzIh0lkTYZ+2GVV3ymPYNIEmBZEJ8u7p81qr05Yo4c9MuCXRjiS3LlwVOh6MkdcbLkesAnkR2ToFkQr6Dv/Kdm7QqPIklMLzH5i2+rbrg8tT7AV7GLAbYxoXW2qSPBGpyuGTf6LJ9CIGJjqzneXkLoufDtOEZA8aAMWAMGAPGgDFgDBgDxoAxYAwYA8aAMWAMGAPGgDHQIgNlH2VYvcWYuuyq9vcBd8No5EnRqZLyl7zSUjQD+SM1H2+rfcuUjrBdRdnTingpHZXMutIGY64YPF55HGLMx91d+H0lcAtQylfIZEZJ+rm2qZaO2+43pj/9OpfE76bTMzoQvYzm8OraHYaHEGTBp2gl5mMdy81QfkO1O80TRbH1tXnrQp5M8Dn4JSr50nKbshSd+XbF41G/URqI7yy6BG0cL9NZwOOA6CPbjORtkR3RpbS3nfpGKzHMUY0km/WuiK57DpB6Vz+z7NtSWlk6z9Lj66Rra4MW8svQxz2efnyx+upoegVwKMDPFZwFiGTpS3twSofiNNi4RYNt0zhdYiV+SSWkA1L9a6UiTV09p3m46E7hYY3xqOHJgeJ+HOjDk9UTfzlzRUSv1mcFxblOg7eINm45HxLrjYiN+ic5MYb4mDDNOraJXzqkZOktRlvVs/ANsP0YndckEus+8EffeSK67riy6vN85bbRoTh1FbdK20SnSur6jCnvq+Lh20lZwuelGavvyVUZQ5ZtcH2Rw5nwWOWDE3kDDA5SGdyCvMT8U+T1Mf4Y1UYdn4itr61SXe0OK0URZnQp1CVuX/rfHHein6MS1lS7w7DuK2tPh+VvAYmf6YMADzt5Ivp5OkFttTsM6r195eDx6mNE++H2oEcjMHIjFq3GcHloY4BT28TDQNEMnOux6XvVwj4MMPhg3tWgi2ZgV3GNTb9GYOSmMgIjCRxV83kIbOmoBmdxGQPGQG8YcFdkfQM7AJVT5YKaT6FdBshvLD4+VqgrIvAwaO+wgsXUKCRlh1l0LyzkzS/rcMz1TgyNv4hA8TeuX26T+BtL+34hzfHx+Rc+ZduIlJ2BjXTeoNMj4Xtrj/+XUHcuUNsP6n2bgRxPAgh5XNXh4Uc+8cSZeDowF6hF+jYD5RN4vBw528PQoajbCTgK+B7AjzNGSQyBp6Lnqk8lRAUN48Tj4NNpXRZ5bOYvdc8A+wJfBhIgSmJ24Sujeq5uLN8DdD3IT5Z65nEjJ47idaoc/R8lYmbgQwgkUcF0meXvwBT3t5usPeR66O4D7AX8EagsMTOwcqcNGG6Y+nw0w3eCekKEG5/CH8yipC8E8v+GUNabTAZ/Fwxyyz8FyirREzulFpaN2YXDempW+4XU/WpON1mHmYNSPd8TWo6L/GIMgbFn4SQ/tOBWnn1XBw4G8k5wa6Nd7kweRj5KYnbhvCCLgso6kxbZ5bXzDoPyXmDvidzwH5LHyxfKnyeTuL8xMzBr94iLqLr1GzD9OcDbuP1TLETKWcZjHnfbNQHKI8AtE7nIPzEERnbdiPn98Pp94JTU+35ICS3XoHCzrojJ941AcsE7jQTgNSCv87gaw7MtTxhy+YJsPdJHAoUZHmd/L4Wm0piTSFMxjZVfIzBycxXtwnfD/3ZAEtlPb83lJjxrgPeiYX1A7jWz9PpS/xIGcgHA7/KbGAPGgDFgDBgDxoAxYAwYA8aAMWAMGAPGgDFgDBgDxoAxYAwYA8aAMWAMGAPGgDFgDBgDxoAxYAwYA8aAMWAMGAPGgDFgDLTMwO7oj2+Nvg7wLVNDfzjgg7q/AeYAIyl818cm3NTgQL//PzKT0Z18IxOYBRLNwC7woLfv7dEePQ7s7SQPKVbVHgNFb3e1F4n1FMIAt9uuAF/I3xzgy/e8Bn8CuA+4EVgK9F70IZp5k2YYeBvc8t17fsjA5byovAg2HwVCpZVTsB0BQzdLu/o7ozve6L3D0+1zqLsK4LcLngRWAWYD+wPvA1YCKLOBK5mB8I72COBNFvog7t7XhzGNwhh4bX4T4PLLTzLzY0JlZTco8pMurp9PlXDQyhGwRBy5Ku7AcpVVI/foFwDXvs/lW9X487Iz0cjrN80Fj3S+G8Z5qS71mc8SHkn5JSzt87Qs5bS+1xNwOgZ5rUOIJqeP+TMKNrg0/8Lh5cfS4Eldnjwqg6p1kXsR0DZ7DFqHM72egMPDtRoywDODniD8JSLvOl3r6nzWEfEEx//PUM6SViag77CeFZDVN8/AbKeLe1HmnW+WLMto2BT1F3na/unUzXbKrRfz9q7Wg7EOp/0LHPBIJnewOyK/FvA84JNZvsqcOn75Twsn+FiLPuwzbxLPwA/hQvP6h3iXEx62xF8uv2jfW+f4buUUnNN/qSY9mJAJ+G54/x/g2rdZPqfUCLtRus3hht8oXS8ilKMdf+T5MwX+ej0BOfazAX6Pr81JJ33xWmgzYJRlPoKTeCW9D3U8LZcRXl59BXB/PXkFdVyWKZLeT8AiAqx98qjH9UOZgG76ONquBng3+yuAR07+JuzqscwzzslAWbEJWJapKaJ3CMb5AOCbXFl1vOZbALwTCJVWJqDdBYdulu70f4euCRFuO95EzAH4NAxPtXwahnfSjwFjITYBx2IzeYPkhLsnhVdhHCptIXoctlKPY6z7CLhHj7maakNz1wh5nTlyci4iyroAtvp+cfPFJmaf/OQT43tVGJ8AzAN4MdxncY/wtfzrtBEm7CnE9ifgYoDLO7VLHROw9qBG2KF7GjL+IjeW3YREEmjmcQzYBIzjz6wjGbAJGEbgMqWu86rassaAMWAMGAPGgDFgDBgDxoAxkMdA7DoWF54/C6yT14m1jT0DSzCCSwA+AFGr8P3cGPkSjPnSjEm/GeAB5l3AXXUPM/ZhhDWcgBKnbMXxZWAThM6fWEVWl0ydqa0D1smm+QpmIPYIGNyhGUQzsD487ADMBTYC3Msofk2B12x8Mprv/TbyEAH81iI2AWuhsXEne6KH/QB3svk65mXRNik+nirwUf1fA3yJaaTEJuBIbY6hYA5HzfZDtdOm/Rt1twP3Ay867bxZeA/AbwTyUTnKBsDnAd7F8g26RcBISFcTkKePg4GpsnzzLMZ6JfAQUEY4YU4E9BHvKZQ5eZ4G8oSTk7gmVdoN6YcALrlxex8LPAjQV+fS1U3IVJp83Mjc0TjmMsLJdxKgJ9/lKF8IuJOPO/KpKZj3yW2oPANYrBq3RP4YVe4syz2iCzmvi07HpM/DnDj5KuY9Tp0Uj5IMUuYTVXazP0EFj6obpw2bI90J+Eda7iTpagJ2Mtgx6HQ9xMj1N5FnkLlDCiXSJNXJOuUvRPuRys+2yHc6Abs6BSsOLKsYcA8Ir6o2X5YTzSdZp3zXn9ufz1ejdZ0H0Ojoxs/5fxAyPx60Who61/l4RHw0LbtJ6KUMT7lauF7YqXQ1Aedi1F3ciGSdmjrdCE7nV6N8iKrjXev5wMuqrkr2AzDSE5D+bqjiqE6brk7BXUw+8pZ1aqqT01hfd8ABr9VEeDT8GrCrVASmq0D/eIBLMSKvIfMjgB8v6lS6OgKGnjo6JamDzq9Hnw8AxwGcQJSPpFiElGt8/P8fWcIlHC5E7wO4D4xwLZJrgG8BnUtXE7DzgY9BALzuOxPYAvgEIE+jzEGeR7RQ4cTjeqJ7IxLqp1Z9m4C10tmIs4fh9ezU85ZI+XWG2cBKQJ7wGu9O4Gbg+TzFLttsAnbJfnjf/AmN6I10dRPSGwJtIHEM2ASM48+sIxmIPQXrRVOGkkTGY+ajywCXbmoX/cRFFed3w2g7YGYVY7MZGwa4gH8J8PrYRGyBGgPGgDFgDBgDxoAxYAwYA8aAMWAMGAPGgDFgDBgDxoAxYAwYA8aAMWAMGAPGgDFgDBgDxoAxYAwYA8aAMWAMGAPGQGsM/B9oP9siQlbJjQAAAABJRU5ErkJggg==;fontSize=18;fontFamily=varela round;" parent="1" vertex="1">
                    <mxGeometry x="600" y="200" width="80" height="80" as="geometry"/>
                </mxCell>
                <mxCell id="saldxAls0CMVUxLMnOsH-13" value="Done" style="rounded=0;whiteSpace=wrap;html=1;fontFamily=varela round;fontSize=18;fillColor=#dae8fc;verticalAlign=bottom;labelPosition=center;verticalLabelPosition=top;align=center;strokeColor=#6c8ebf;" parent="1" vertex="1">
                    <mxGeometry x="950" y="120" width="100" height="180" as="geometry"/>
                </mxCell>
                <mxCell id="saldxAls0CMVUxLMnOsH-17" style="edgeStyle=orthogonalEdgeStyle;rounded=1;orthogonalLoop=1;jettySize=auto;html=1;fontFamily=varela round;fontSize=18;endArrow=blockThin;endFill=1;strokeWidth=8;strokeColor=#999999;opacity=60;exitX=0.5;exitY=0;exitDx=0;exitDy=0;" parent="1" source="saldxAls0CMVUxLMnOsH-7" target="saldxAls0CMVUxLMnOsH-3" edge="1">
                    <mxGeometry relative="1" as="geometry">
                        <mxPoint x="390" y="400" as="sourcePoint"/>
                    </mxGeometry>
                </mxCell>
                <mxCell id="saldxAls0CMVUxLMnOsH-14" value="Project &#10;Template" style="shape=image;verticalLabelPosition=bottom;verticalAlign=top;imageAspect=0;aspect=fixed;image=data:image/png,iVBORw0KGgoAAAANSUhEUgAAAKAAAACgCAYAAAH8yFe7AAAABGdBTUEAALGPC/xhBQAAADhlWElmTU0AKgAAAAgAAYdpAAQAAAABAAAAGgAAAAAAAqACAAQAAAABAAAAoKADAAQAAAABAAAAoAAAAACEJDuzAAAP1UlEQVR4Ae1dW+huRRU/XfR4OeYlfQnycrKspJcyKhBfggrSXqKr1iGIepFEisoyHEuyxFKCotTIh4PlJQhSyFToobDQIiIJRcVTmqRSHjl5rE7W73fcs/+z59tz23tm79nftxas/9zWrLXmt9c3397zzZ7/tm1CEQgon8yLrMb/WWW7SHllVJp5o3orG1JISbUlvpp78WrVNip1sS2uUPFeuzK1TCVO6vPQKRzTYCu0yzE6OjK2guebVuVIO52NgpbfZoZNW2kI+rKUvxD8U/CDYCcpq8UuW81xxU8YYjEK2/i1MdR6rkHmg7qQkroUUsePEhS116LNeDp/Hm2HedrNJmUWJL/uCGS73HZgu2ZqXa+BDToQFICm9vPaaO3tk+Jho6dNqJDcS6q3dkCl7eEAFW0XxZyt8Ett82pGrVat1tgKvwIR3ZHT+6lgnep6VLlJT1/KLbLSQlmbKaTrmO+Q6pTiC95+Z1h67Bi0mg8WDyq0MdSCZ+vMnOlBD/VF8TlyUNAn0LTFykWoEpGNQsCOws9i9EcUQEDl0plNkeHQKJ2umYb6Y6Yrw49ONtRXdaQ9BZ+Dnm6jm/gEcn6Mlpd6hOz49IiuNIX67jZ6nIj8n41yJ+tz0BRUTcFO96L+KrCu12VUdUh1SuHCcxD5Wp+YsirtstXsLJr9dJ6pziN7MM8y70hsUnaFLjsbtMCANFanKdfm5/qQ9I2zdaqvcUxdCcWtzhQE206e0XD+G8r/6NOb6mCMk5xihvAxfQ7GTjO6Lx28GMx+14IfA9sU+hax5XX5Jp0x01QH2fcyU4GVD03QlnhvcYhPvYqkUhAQBAQBQWACBOyZXxWw+S3o/HsuvSUcHKUz5W4mFwhJenxfzEPvSujA0+BjLU9UUz6A1HfD0enmc5CCdox2OnsKfYNTjbxOPd23mua4xN+B+S9sueDPzeHgE3DpUL9bW60hB4c+X/TeHW+Z3XYl8gr8SaOuN+uLwaHx12vIqtyHsgKfZNWvFEMIrnTIXLEnpM+HoO6rmoy57qLrXGnTpU20XFsRyDjlnQ0Bhb7mVJ0ded8l7gj6PLDa+vqxjmwuFOk6VLsp5hK7e8e3qB7RvroVsakQXDFsVTidjUGQl+Vo8G6w3jyiFbpSiJYhVUBtqs6OfB+CHYEMDt8HHTFXIYOpVRVqtWp0TUdnH4KmBS38J1TeaDZMlfd9iumDavi1SD8M9tHQGwvdr1d3yEHd6VJkXqMLnpQ3GEPYqTLWQaeC0g0pDio4Q56UQh8S2xlza4iyG1FmPGWlVAf/C+vK4QFjLzulXOLsxmMUjh314TDyuRhDCTL3QvbWBHkRFQQEAUFAEBAEBAFBQBAQBGZBwHczrWbxaJhR506+Yerie8U8z6l4dbNI0r/YN6+yOxgDoG30SVQcb1dOVH4V7DwcsKWs9qJLckMA1OD5Pv7WGLIUuZzyEDhkV1nWLkGZdQ+AbwBnpepXPDKM9lLo+CuYy5pnZNDXUbEJAHLAfJ+WlP0dqE0BkOAp/gEp8KCXk9nZpiFzICfy34GzL/Hazlll7n34gFWXWlTo8BLwRWDmNbl2Met2ZzoEQH4L9u7Ddlqpq4FL65flcmkIgLls59ajciu09H0d5f1W3bZcAOofgLX+3cjon+N1XUgm1K71uFLlashQT938+YJph4YCqKBlH5h7rkh80SpEIRlfu4LyvWCfTMh+kfahANKZI4t45FZ6tLupbYmJ4hiZVmEoMxTAZ6D4JyHlGdsZfTziJUQxEeqTUTCQFOlDAfymNRIaNqnPCWUKIG/L+Np9g7bUji7GRHprZCiArYImo+yKnnJIJtTeozJ7VWykt4ZzAdgqnDmjLPt2lLPZJ5Mc6b6VjeNgjDuat4NrJu6ju7mwg6rRr9PWnC8C+TbK5a1kmYxq1Oq0jJWCWn0AxpjtG3jSeyEOI7Uv2rZulwCQoGpuDSVmal+0bYdTYjmL79WQot+teUF8mX9LAMj3fvgcfCj4/GXCEu/12I+wy9JuNOwAfwaswKTHwU+Bf8zCulApAIkPFxsUMw2dhDR2EXYxi7YlAdTA6XSPzkSki1m0nRJAH27K11hJ272V+CFuCAKCgCAgCAgCgoAgIAgIAoKAICAICAKCgCAgCAgCgoAgIAhsJAKuvTHcF/OphSDyLPy8Yi5fXb8Lc1PRUuiIOR11/aikd2SpOZ2LsD27f64IjPBdRIiAADgyDlwfYZfanWjgK6dzELeFnBAwvAvtpxgy3AlxNZg7VYtQagTyHbm5SG9589n/m9XIu4wLwbzwRSg1AvUOdtftTxEnoTR2T83PIEvW9FZk3gX+KFiBs1NqBGZ3oLDCX0P/I42N0EGXg1xZdwAJyvUNMnxjPTttAoAmaKlTltm3N78pAN7djP7cXhRGVG4KgLc3GPEW55AReK103RQAOfB7mtF/ESn3b2eh1DmB5xa8Hxx7W5HFyUxKboOeV4N5XAHfIHgezM3wvwLvAQ+i1AjkoQ8EcWp6Gga5b3os8ankl40Sjp3fzB9ryoOS1AikEYJIXirdCcfJXAZ7BZj7sQfTEAAHG6usIxdi+REeRakf4VHG1rHzukSgKnxx+PLjt/ts5ACQqx16kUHbUDrTpCGZULulbvKicxktB4A8DOI8Y0h7jbzOhmRC7VqPK1Wuhgz1Xt05AORE7DWC9pBMqB0q6qQhXyL8uVNNOBx+vKe0lzS0IRHIO3kSF1WneCKx59eDxnv+xMyjMTI9qt1VQyJQ95kCPLfnqy32wTyuudjs2SdjtgfzQyIwqHQmgZh5NEYmyX0dTSmdfghhPptORbthaHSkRDjLj7eKkOuIDInA+6GBPBUxapIPxBngXOxc21E9BMCOAhR45WzjyhIKyYTaLXX1FId8hG3vc0zeMTpsu1WUc0RgzMQckgm1TwHWbhg5J9VQjghMtVmr/KC5NkcE1gJIzDwaI5M0HheA90HL6WCVpG1e4ZgFiRiZpFHwccxF70MDQayZnoNz14B50lwpUo1inXbsuCKQQjc33OmQsaAaXTrNqHo6VfIlMhJrXwSGVO+CwCmGEBcX+LPhXqNu7bNjIrDUZsadQJ0XYw7mbx9JNCYCS21mrH0XbAfgMRHYUYRCrs2M+rmadwhTsj2eqHJOAGnw+sZqkc2Mje6qktwAmoMbMz2YeqrOlwCw2GbGGpEsAWCxzYybAiDHeU8z2KybGWsEsNQ8dRsGm30zY40AlvgI63EO3cyoN3BOfSOt/U5KS0WgduJOZMgpmxn15k1uJZ6S+Evjm1INloxA0xe9mZH7kmOIIE55E01bx4KTd6tOBWAMaIuUqQHA0tNI0Qszp/M8l/kM8MVFR1hYOf/P5Fz0AAzvAHOnfM3Enw2+AT5Qs5PimyAgCAgCgoAgIAgIAoKAICAICAKCgCAgCAgCgoAgIAgIAoKAICAICAKCgCAgCAgCgoAgIAgIAoKAICAICAKCgCAgCAgCcyPATempxH8193Ywz8M+LLWzyHcQ4KZX/melu8Alz8voGK2pkBqASzgApSZ8U3zhCT08H2WjKPXdhtMtdJRVlmIaAiZ+xHbjArCGt5PSLplIrxUCEoBrdTmXN5jUr+AhI9yJTpeD3wE+ZoiCBfXha9o/B18ETn7buGecfDX9TPCJYGJ3CPjfYP5r1r+Afw9e9MNL6QC8EQBN/a4+TM5GDBKOl8zDHvR5BcgOogvQa7vVk+WjwKeAz2ra9iO9BTzX/ypu3EhPSgegHXypT93pI5q3B08W0cSxjw1AfnOcDOatEmc9LttwVuSM+GbwK8Gkw8EfAT8L/h54MWc2lg5AYCE0EoFHrP78CuZX/R+a+rchfWeTZ3DyZOcfgPc0dVUn8hBS9eWJcu5uSF1nSe5CmV/T1ZMEYPWXKMrBRyF1hyHJ63q2Ua42KwFY7aVJdoz/E5lfzZpOQ+b1ulBrKgFY65UZ5tcNVjc+CPFpuVqSAKz20gxy7An0uhZsPo3zflCfvDhIaclOpQPQXg4gMOvM5rUyvw7N+tL5x2Dgq2Cmml6HzCXgT4O5fMNlmyqo9DLMGzHK34CPr2K00znBNbu3TGduxdJ/UMOZcAeYs59eL+ST8bsbRtIS5a8G/7OtmShTOgD5c9QJE41FzKwisA9V32+qX4aUE8IbwC9v6nTyODJcxJ6cSgfg5AMSg04EnkHLLxp2Ck3dUPoecOrxiL2FISAzYF0XTNXlTrQ3/I36j+C7wPuje0GwlgA8Fb6cA9b/9cweA5+m+c9XH7QbrPJYPWP7W+5sTJHvBvHkfvK94FvBUVRLAPqCjwNhYFLmKhY8NFbP2P4e16KaVJRUXUKMoYsNlxiEiwvAUGAZ4/Nmx+oZ29/r3Jo2HhgzrqlmwJ1w8j1gPvTcBr4fvE6kv7o5pphbhXUa+6ixTBWA58JL/c9xPoT8l8HPj/K8rs7nGe4wr4zykKwO6KMdnae6J3aYz1c91TKMDj7t+ToFnx5TzjT2XjRkM5eekJ3B7VPMgPY2fAm+8OXKdS+aS0/Y44ESUwQgNx/sA/N3SdJcP9K/YL3MX34l6q9LewNGGYtltepbAFopek87RQByEFfyzxpT9TNNIva572md5qcKQKcDTYP+xOlZxJaf6qY7lx+2/1J2IDDVQ4jDfFud62Z5rJ6x/dsBSSYOgVpmwFxfYWP1jO0fh3r9UpPd09YSgPVfks3ycLIPogRgnYGV6140l55iKKUG4L/gyXbDG2XkJTsOAW5p0hR7LxqaqXLp0X5lT+1F4pCB4yDwcTCPgBDKhwC3w18HXupJV8qCwi5bzVvF1BmQAF2x1X2xOWV5bpetZimWQqCWZZhS4xO9lSOQOgPmGg6/ws8Enwg+Brx2By9iTEIRCMwVgBfAN/Nhhq6yfBSYR0mcBSbx/YJbwA+xMDPthP3LwXLSa8YLMVcA8kKeDOYtwFPg2g9evBE+8pyVTSF+K3G85JvAfLm9CM0VgBzMI9aIaj540Q6+1NUDa6jVF7mDSRPHXiwAa34IuRsD59KESbtQ4Ne00JogUHMAEuJHwXcYWNPfs42yZBeOQO0BSHgXefDiwuNiMveXEIAEY3EHL052BRduaCkB+ARw5nFj5s0x7wd5c7zuDwQY4vrSUgKQV2BRBy+ub8jkHdmcyzBDRsKDFDkT7gBz9pvq4EVzgybMdmZilteZir5EtrQA1Beab9lNefCinPSqkc+cLjUATRimOHjxYRiUk15N1DPll3QPmGnIoqYmBCQAa7oaG+jLOnwFD7ls3PzAQxU1KZ2RdDQC5qsFQWX2oUHBDmsi8FuM4zTwkWsynlqG8SQc+S74QC0OiR+CgCAgCAgCgoAgIAgIAoKAICAICAKCgCAgCAgCgoAgIAgIAoKAICAICAKCgCAgCAgCgoAgIAgIAoKAICAICAKCgCBQHoH/A7M26Y5Bl6GQAAAAAElFTkSuQmCC;fontFamily=varela round;fontSize=18;" parent="1" vertex="1">
                    <mxGeometry x="280" y="360" width="80" height="80" as="geometry"/>
                </mxCell>
                <mxCell id="saldxAls0CMVUxLMnOsH-16" value="Project Board" style="text;whiteSpace=wrap;fontSize=18;fontFamily=varela round;" parent="1" vertex="1">
                    <mxGeometry x="560" y="40" width="140" height="40" as="geometry"/>
                </mxCell>
                <mxCell id="saldxAls0CMVUxLMnOsH-23" style="edgeStyle=orthogonalEdgeStyle;rounded=1;orthogonalLoop=1;jettySize=auto;html=1;endArrow=blockThin;endFill=1;strokeColor=#999999;strokeWidth=8;fontFamily=varela round;fontSize=18;exitX=1;exitY=0.5;exitDx=0;exitDy=0;opacity=60;" parent="1" source="saldxAls0CMVUxLMnOsH-21" target="saldxAls0CMVUxLMnOsH-3" edge="1">
                    <mxGeometry relative="1" as="geometry">
                        <mxPoint x="280" y="210" as="sourcePoint"/>
                    </mxGeometry>
                </mxCell>
                <mxCell id="saldxAls0CMVUxLMnOsH-21" value="Issue" style="shape=image;verticalLabelPosition=top;verticalAlign=bottom;imageAspect=0;aspect=fixed;image=data:image/png,iVBORw0KGgoAAAANSUhEUgAAAKAAAACgCAYAAAH8yFe7AAAABGdBTUEAALGPC/xhBQAAADhlWElmTU0AKgAAAAgAAYdpAAQAAAABAAAAGgAAAAAAAqACAAQAAAABAAAAoKADAAQAAAABAAAAoAAAAACEJDuzAAAJwElEQVR4Ae2dS6jeRBSAr1ZaEKwKFkQtaFsL6kJQXOii2uuqUAsulXYj6MaK4K5VSgS93RVFxCdu1CJuBCvoQlvcFVyJqKU+WqgPsBXF+moV9JzeP/cmaSb/TGYmmT/5BuYmkzlzzpkv589rkrlzc6TQBDJLhVW5pfKFlgqsxdJXaN2V2IKZrQFrwYrCpXad7ZT/Jh6ckKWuN+WJ6OLiolJpuXDBZHXt8ia7tRF2ucrwrJDK7GiVpI6UShQgAAEI9EJAzx9bJ5abziVat6UXD4MbTavL+fk372aWrzgu27ZzNIM4BCwIVKO62CQrFjpad7LpJGzRgWn6auur15omO7WNTcKF7aZ214rMMclNe1Cq5+ZiO3jOSM2f47JtqnParkkoU4GOU9axPX9zXRJ8Tdx9YIrL2ZT6UrWTcKllu0KtPdub5PzS62A72+1b2f6Km0KhvXWLlrYELVTFEbF1kF1s4m9L0NSe7RCAAAQgAIHECZguo3aJ36s69v15sXfS1mZmK2gpZ6OvVib5i4XkHbS95K/FP2X3/ib1+wwyegH8reT1hvqlzTEdXDJSs2L6cZ4nmvwuTt5BE+rsPNbxNxwVE/vjm8FCHAJ3iNo9bVSbYnC7KNvQRmFDG31TYGVD/VNS929DfakqK5W6KdTaTP4wMxgH84dH3ezsghXbc3GhydKqOu2bTD/SJb22DtYpqtu2pDjUymBiMBQQZz2DIciv2LTv+RWbyNhuT/5HYjrYXiE93Gnby0ByWSA9qIEABCAAAQhAAAIQgAAEZoCA6WbE5HpmqhjYdn1OvWDTJ9sb9qqurLohkXLuV75s45a2bXrIX9KZ/P16ydsEC2MCmD84zJc6ZOmd2v6E6ww/JhtX11VE2Pam6PzKUa8e7/VB0wHJtzu2NYqHBGh6acJovIeKU2IzGDz1f0w/4Sj7C4CeWF2vA9eIvQclW5/mPf3ro7nOTvBWH4axCQF3Aq4/YXcL3bWYF1ObKuaySjl40RVgdIc8e/iStP9xouNRWV7eUt+v0u4Zm7ZtrwMzG+U9yzzb0r727TLbtlzG2JIyyIUE+LTYyO8zdTmKFBLg7gqx05VyXixC7nNdpxLzTiEB6gnpkOTfJW+TfInkuqRyKWTnqdPqOtP2JFKnS7fNmyqGuj1kBA6VUWO/ANiIZ3plSICchafzbpTgLNyIZ3olZ+HpjKZKcBaeigiBEoG214FZScvwCl8Mr0v0CAIQgAAEIAABCEAAAhCAAAQgAAEIQAACEIAABCAAAQi0J6BjubZJP3F42FZ4huXOiO97bf13ebVDvw8ZQ3Kar9plWDP/uCZLlGLuV75s46ZzW5cIbOPQ4NsA0HMXAxCAngQ8m48lAvXz/uoXAZ7oFpu7nIWbDHb5ub/6kTU5U1O3UbZ9I3ndpO66GplWm0JFoM5D0FXS/8nQJun/aTgsWW8IjksOkkJFoE4AkQXxKK6SoPMlqKuhIjButxPWDkDPnQNAAHoS8GxOBHoCdHkeeL/Y0uupMaTMtpMrbAVF7jPJV0rW+aeGms5Kx16U/OdQO0i/IAABCIQk4HISCWk3lq5MFN8l+WfJP0mOnoYEMCvQulHW9UGJ/rfMqMnlOlAdeiKqN/7KdUz3bck7PFR9LW3fsG3vcifyiK3SnuT+ELs6IK4PTp/z8GGDS1uNKtt06UQws23Qo5weA9v46dzGJQJ75JGuaQB67hsAAtCTgGfzkBFYHHdd8PRrZpqHAniw0uNdlfJgiy6XMU0QbmuqLNSdkPVrCuU+V11uIox+horA+4wWyhUPlYu9lb4LZTkUwPfEIZ10USdf1EkYTXv3/Umd1veZg0y+KH04d8OtyxBJX+8wzVoZQn+SOkJFYJKd68IpAHpSBiAAPQl4NicCAehJwLN5yAjkXthjZ3Av7AFPm3Iv7AmQe2FPgHovfI9k7oU9QCpE7oU9AI6yacjLGACOkoBnp4lAT4AuYyI6u7e+9ZR52hxUc5fX2z6Xno/hJfMXpJ+8ZD6oMKczEIAABCAAAQhAAAIQgAAEIAABCEAAAhCAAAQgAAEIQAACEIAABCAAAQhAAAIQgAAEIAABCEAAAhCAAATiETDNiRPC4hpRcrfkdZJXhlCIjs4J6Gz4OnfvR5JPxrAeKwDH9L8eYuyXFHUeFaf2h3bM5dsuF9sbK8JZpUyxmUCVV7Xc3DpcbdFudZ8GscLXmUEwoqQtAQKwLTnaBSFAAAbBiJK2BAjAtuRoF4QAARgEYzJKPhRPilMO1q2rTDIp1l1w2w5eLw11vrLVbRUk2k7/g7lOqa3/9Dtm2inKNcCuNhj5XrarTDIptSPgEINPd7b+oLRvsdMRMaD/1kEDUKdEypOu6zatU5lkUmpHwH3JkJltR34Q92+ahS6kdgScBWb4GJAAARgQJqrcCRCA7sxoEZAAARgQJqrcCRCA7sxoEZBArNexdouPKwP6iar+Cei7gQuh3XCZKdrFtj5rullyao95XPqA7DKBM7L6qmRm0F5mwhoEIAABCEAAAhCAQEsCsW5CWrpDswqBW6S8Q/Ktkk9J/kXyoFKsxzCDgtRDZzaJzXmD3Q9k+2FD3cxtjhmAqvsGyesk80zQLjQuFrENFdF/pKwDBtWz1THZdroiG7qoz/70u+AvJevLrcFTrADcLJ7eGdzbcSn8W7r7umR9iVTTVZK3S9Yg7SN9LEYPhTYcKwCziqPvVMoUzQT0iHdcsumhr55N1kvu4qxyr9jJkx4Bn8wLoZZdjVR8Gsph9MzpaVFPiV2kYgBGOVjxMkIXuxEbRgIEoBENFV0QIAC7oIwNI4FUA3CreHxQsj5m0KzrXXxVJmZIXRLo6ibEtk8aZO/WCG+WbZo1bZN84Nwaf2aeQGpHwP0WRG1kcjVbZOWEZH2EQF5koUySSakF4CcWZGxkcjUvy4p+jE1aJKAslEkyKbUAnBcyCw10tE5lbNNaEdTnV+RlBsokmZTaNaCCeXySk4GEI/EIpHYEjNdTNCdJgABMcreMxykCcDz7OsmeEoBJ7pbxOEUAjmdfJ9lTAjDJ3TIep1INQMaCRxKDqT0HZCx4JIGXdzO1I6DNOK+NTN4/xoLLY+A6Ls5YcB4dNUubcV4bmVw1Y8E5icUlY8FlHueV5mVL01jwXqlXGdvEWPDyGHA+Hs5Y8JToYSx4CqAhVad2DTgktvTFggABaAEJkXgECMB4bNFsQYAAtICESDwCsR5E65zCqwpuZ4V1VmeTgO7T4GlFcI2LCnXqCCYpjwS3B7U6UdIrkv/qwTYmIQABCEAAAhCAAAQgAAEIQAACEIAABCAAAQhAAAIQgAAEIAABCEBgxgj8D4xH5tSp4Y+wAAAAAElFTkSuQmCC;fillColor=none;fontFamily=varela round;fontSize=18;align=center;labelPosition=center;" parent="1" vertex="1">
                    <mxGeometry x="160" y="170" width="80" height="80" as="geometry"/>
                </mxCell>
                <mxCell id="saldxAls0CMVUxLMnOsH-24" value="Issues" style="text;html=1;strokeColor=none;fillColor=none;align=center;verticalAlign=middle;whiteSpace=wrap;rounded=0;fontFamily=varela round;fontSize=14;" parent="1" vertex="1">
                    <mxGeometry x="620" y="270" width="40" height="20" as="geometry"/>
                </mxCell>
                <mxCell id="2" value="" style="outlineConnect=0;fontColor=#232F3E;gradientColor=none;fillColor=#232F3E;strokeColor=none;dashed=0;verticalLabelPosition=bottom;verticalAlign=top;align=center;html=1;fontSize=12;fontStyle=0;aspect=fixed;pointerEvents=1;shape=mxgraph.aws4.user;" parent="1" vertex="1">
                    <mxGeometry x="60" y="190" width="40" height="40" as="geometry"/>
                </mxCell>
                <mxCell id="4" style="edgeStyle=orthogonalEdgeStyle;rounded=1;orthogonalLoop=1;jettySize=auto;html=1;endArrow=blockThin;endFill=1;strokeColor=#999999;strokeWidth=8;fontFamily=varela round;fontSize=18;opacity=60;" parent="1" source="2" target="saldxAls0CMVUxLMnOsH-21" edge="1">
                    <mxGeometry relative="1" as="geometry">
                        <mxPoint x="90" y="320" as="sourcePoint"/>
                        <mxPoint x="210" y="320" as="targetPoint"/>
                    </mxGeometry>
                </mxCell>
                <mxCell id="18" value="" style="group" vertex="1" connectable="0" parent="1">
                    <mxGeometry x="720" y="400" width="250" height="60" as="geometry"/>
                </mxCell>
                <mxCell id="8" value="" style="rounded=1;whiteSpace=wrap;html=1;arcSize=8;fillColor=#647687;strokeColor=#314354;fontColor=#ffffff;" vertex="1" parent="18">
                    <mxGeometry width="250" height="60" as="geometry"/>
                </mxCell>
                <mxCell id="10" value="Project Milestone" style="text;whiteSpace=wrap;fontSize=18;fontFamily=varela round;fontColor=#FFFFFF;" vertex="1" parent="18">
                    <mxGeometry x="80" y="5" width="160" height="30" as="geometry"/>
                </mxCell>
                <mxCell id="14" value="" style="shape=image;verticalLabelPosition=bottom;labelBackgroundColor=#ffffff;verticalAlign=top;aspect=fixed;imageAspect=0;image=data:image/png,iVBORw0KGgoAAAANSUhEUgAAAHgAAAB4CAYAAAFOYwZEAAAABGdBTUEAALGPC/xhBQAAADhlWElmTU0AKgAAAAgAAYdpAAQAAAABAAAAGgAAAAAAAqACAAQAAAABAAAAeKADAAQAAAABAAAAeAAAAAArKnfUAAAUvElEQVR4Ae2de4wd1X3H8a69sVnzMHZlQ5o4JBJGcijQVNhxahsvVqTSGmJeCU0DVEEkcaRAAg7Ko5Qk/QMCLhApL7lBBIhKTRMDpaAm+BUXZ11VIVDc1kTKOk4gjli/WWyv7XU/3+mc4dxz53Fm7tzH7s5Io/P6nd/re94zd+5JJzXzOnz48Anu2xqWIUYNMYllsGXLlinPPfecF+dYBlLJh8GJEydmRuofOXLkqSgRMli3bt2bdl5iPE4NaZCmBQJfChjGVU6UFBZQ+XlTuXEcs6SZcqTerXiXycip+pmmXhT6MEilUWENjiFrqcr9SCQpKwLxS9xbsujKL5cJqTamibQr2vG0OlGZd4WwLW+OaiZEYLiypshIyOoMppKhD1pYV1fXDSpYunTpBK6H0nqTYZAaigFX1HxtYrA/z07nih89enRBVAFOj0cJj4ixOSCtSfhV/lUN2fDw8LyajIQEWg4nFKVnI+CmVIokE5LyY5kh5ZOoeATPLoklGLWZthvUVJTWzdXbVKNswa4gtZq0cpc+SKs79ff3nxpbWCAzToGavoq7bg/5zn3jjTf2+44qWbpMnjx5git8gl1JhSKy8+zRiNHp0ksuueRZuzxP3OYfCbEz45jRYLpZoRwzZRomTdw3xKMPo/yWnp6e70SVswTbzPHCG6R7YbIZDyyyy9LiKN9Dozv4Nq6IToKjRJMiWLw1dlBptvBE/ur4iYUNesGLrxeRpyKaHXLzUwXuQgtZ8BzOLTDOmFCJYCyG6fe5z1MrpbG8n/hWq7x2xo1jVuW10gPRyJVXqN1wGMEOMAxOIxzJyyc3vS2YxnWu1bhey80sTwVbsF0PJe4MlVhm55cWTxJsBKgcJYZM2g1rFgJuYSPpcF7vRvhRLz7MuVfbk79XpRQiWc6wucolqbOY0WiNiMoSLstHRkY+5wqu6U4IPZ0usc8Wypw9Z+HCha+4FfOk4Tsdlw/ay6rIYsbchbhktxiGu7+tilNhO4rsVLzohTEBX7t+ZLGwsDUS0ebNm6cheI+pUGSdZerC5x7i78GDVygvVbCpZLu+EeG2cZGrjZC4MHR9sCaTErR8s/6OI/fK8xIsTqwmRXuL4jSWu2wvKK/wJTf4VpbQIoJjZcRm+mriSWfL8Ha1J29vss4QTKNpmiK4+VUGkmvrXILQuq1kHVEDGTa+YhNZiDberTqvfISujhs2a/i4mtUUFkx48WRM7fci9FRCvLgmeZEjfIQ72oR7VYohklBmvOtiipKzELy7qOVY2K262t4kS0gpgcFMMUCJAylkNUWiL6pwDSMlcNcKwxAl9nJfiVLTud9F/IumTCHX5DoGZWTA+CyEPc09iKABlLqvDL4Vj8oDJXkgWmOWxM+LjTqdDyHTyoPsum8sc/qa6CO4WTTu7sGWw2DRxQDxMIPFCA4KijB8G7uB99p0oyIuhH1Rtg3C+BdMXeL9dplvvK1NOg3hLAOMw9TcQT1avWXV8ybMYtTqcjkrdJiavFYLdbvvOJ28EI7ZmV3LnvWxOIbtyKO/RycHoD0L1H+fpIcXwjC432Hwj3ICG3O/syunctlJ9NsrtLmE9C4QTzzUT0TY9BE8dgqM9HgpuDBUy+zuMBkF0NzFYcEXoow2RTD4IIhP5bWFTzOlfctVI9ZgKg1R6eTu7u4lkyZN2uhWUnrDhg3XHz9+/KG4MupNWbJkyf/PJXEETc6zwDoZIA7Z4uoMZu67iAPHrRDuB93TbeKkOE17j/qRWw6PZ0D9z938ZqfRZQKgBY8I3JmgzmDLOz0onKuPYvhFCAvOPV2jQP0doP5bN79ZaQzehy6nAdrbsSN6RJFosOuZvIph/MsInBtT7xVG+Dkx+aVmYfBVyH8cY/8Vo//CMG+awUYAfX0Wff13Jm1CFDlEcz/ZpMsOMTY4jkfObgyeYfg33WAjSCGo/whFlqPEMYz1O4GxGeSII0enBANU2UFrPTuxqvqw6ceJRKOgAGO/JDsyTygg3B8a3fR+1ky/JQFXt9LSU99Qkf9tpkLN5A2qF4o/XWevlxxQ/p48RPioV4UOI0pCN1VNKr0WGn1nKmGHFRpjGbTyH2OC8Muh0S90mF116mBgcCotfbmKzwAwWGa8VielQzIAZm3pOsJ0SEwJ27YpcP3LM4Y+YygD1Xy3vJQ0Bh81Qmg6ZkQvhbcvExtRDM33NMdXiEuHoFXGcBQYwfjpLk2ZaWStNvIUNtRPG1UMBW6zlVEcJ3wdpeqWrj6yNI/C41WbJ/wGyzCykEJZSqPYFJT+AeHyLNq48nDBsIJFf8ecm8XpWeVVHqg8UHmg8kDZHmjKtJSlpObXOBqmo2e5v8ye/Odx5WXkdZTBtkEYfoCnB5fxIGCTnT8q42YF5SrPYuVTlL1uyq3wVpd2VKWNIWlKsxP6IMvJQ4ZWIXmL0+p0bJkxwkdBlqdnYPgeU4e413PgJN51h3hJhO3Kpy/vYU19Bo9qgp8GywEynmt2u3TKLdeglbsiFai7w9QnvLQIj5bXMQoXFUyzvsPwILy5KJ+W1TPKNiIQo5cbPoSdjbRRtBGDVdc22rdPey08eAh2FIYTGUCe4CFYoU19o8Yl1VfzRrevqNznEW+mwRj7UxgutAQO8Xx3qpVue5QWswMlZocjeurZms+09CeORb16g0fPfZ38tiVB9l0SDjBnZC1OMg3u6+uLRVMPuTG8Y0ZI1t3Be/DotVHGJ12JBrOuvU+VaCYj4Q+ntscwuV+vNsTktzyLHVY/uu6VYJp44to7tg9j7Md4k0ffDqh5kwfjbqfZ3OVaA90JWsIkwuNuWSvTatIMYsHSM2kAizVY04YUZUn3bowYsJWm7/4hzeY3dp6JQzuPUfw/TLodIQYfwvDJLEUvjtta1hksYlWSskleUhlovwntFMXtC6Mfwui/tvNaGdcuC0D+DT0OANhpruy6Poyx3xARg0AQuhVMGqP0ltszJm1CnHADzoh+ImryWxWC6o8lCz1iv8ZSh7DVnL1eTMO4P4N5neESql0OvwYOBhKlW3Vhw+vImgFo73OPi+oQNkqBntdbeCD9rN6tNPXskNayhz5/vZ3XijiG3iE5APF3rrwahCE4DSX3yVjQ6XGJs9LMyzuheYdLB7+tOKY5z29dYWHatFR3HKpBmA7/VyH9mgQ+qdnM1+/EuLppC0fOC187Tq3fisIag1FsSSh0bVHhIPkFWkfcO17dWpKuX78+7v3LouJy16sxmNrvFAdQ+nVuTlYFfbYgXJ3V/WaTBc3LDHT3WeQtjdYYDMKzJZ2hfWcZWoC2Vl91n/BDzi364mYZMvLyqDEY5cwL4fvyMkqix+hFjOIfccsXLFhQ86a6W96sdI3BeN68SH1WmQJ5Mfyfpk6dGq16cOw1ZfIvzIsp6XkN54zWwZFoYUYdUFF2mKnJVqcGYTwfLPwZWC62icZS3DX4qdC4y8eSkam2JDWF1EodVkjXDL5BRbjfVa0GYbdwFKe/Jt0ZhIMw1Q68Ejy44tTjwlTCDi40rRSD6wCty8COFbKFgevpDrYpUTXbSAbh4MdaicSmwHjIpEdTSAt9VPoTfs9bbyr8Kqx0t3elDiE0YIF0zdY3VT2IJ5uKqYQdVgiq5uN8ZsXoryGV9WUSrVZW+9dqL6UBCcB6c2tCpUkWg+7cDFpcAYCCDyIQFn8wQOVHZDThcIv1zyWOKTT40LR0zVUxjtigjNGFT0Hi+JaZZ3QkXNYwX7tp48mbGmZYMgNjLID0l8YaQ+cbxmwd+0pj3CAjjEStoMslfrW0sAiMvs4Y3QlIY+yx0Fi/1VQRy22j29Wn6WLTjOPRwethQRFbozo06fdbAodRoGVTFnKjX89gbENv5EUG+UTsgSw0vqmLE+Tp5+3BJ2gkj5a2ykfP0mlQIpinLcRLXXtj6ExkHDD8FSqvdEPyMESBSShllqHBwRmKvQoKhfbT8NM3OO6xjQzjt+XRK4nWf0eRxCHMR1E9SP9vkme7pOHh4JM81dswceJEffFBi/tTcIqOg8/hvoz7cnhER7mkg4s6sZ+YMeV5w9IMtgVjuA7ev4UB0+x83zgOWstz3Y8Sln5Y3xSDXcMY2Zdg/GXc87jPxBAhe5BbSO8k/TSPd54iVLq6Kg9UHqg8UHmg8kDlgcoDY8ADLVlmdYKftPtw9NjBsk5LPd17if+ScDvhdhb7CsfEkm88A+zgnZ4E8L1QbORew6bmSdKlb2rSNShWOm4B5s3Is9mKn8JW+xQeg5+J+87l1tuSwc2Grm5bnuDiAXjcy0bvQUA/nEDTtuxxC7D7QnEaAoA9gd38BYR/qRta7eRjL0DeDc1dNKAHiDf/ADlWi7cyK4Df8kXuGEDOZBT4HBVXEI/9JRsgP8KQvpLw97kFVBX8PeAe9/rX9KcE5OnIWc3hZfSwwJZLY1gFTfEPE/qrMv4obUcr3mwPAKS+NrkSsIP/kLXlk7dbj+aarcO44m87uBUA284FbP0ZQ/TFTaMLeUfp1dfZtFW8oAeMU01YkE3D1QD0JoANXlkwupAeaRbQ1SKrYciKMWCI7mN79gy9+22GAwuxN9lyLWXL9TOT12hYKsD8uk5fvPgEik5B0TX6xU6jCo71+urRAP1d2078t5WV90LChrdZpQDMr4Lfyw/P9e5b3HurrwD2FXwGYZttRBWv9YDmaHrzh2pzT7qM/fq/OHm5kg0DDLinA66O8TIvWuT9gL2Snl33M9PMyuOAgN6sVyI2c0dbKXz2KIcmHytqfsMASzC//70HpbxfI0LpXQB9NUD/e1HFx2o9/NgN0P9JeIGxEX9tY8i+kDD3kF0KwEYRevOH6c36tUzcUG3IakKUfmzGjBk3nn/++eW/8VsjaXQlWGGvRuMbjdb4aTcg64tZufyUC2BaVQ9zxQ6E6nB+kF74N6z49EfVx40iCvv7+08dGhp6CPrldn5G/ADl1/OlgCcy6MZNMb6+Ex/+rWXwLj0kwd/eDzVyAYxADR3vMwIB+O9pVbeadFzI8K3fBzxGvT+IK4/Lw4B1NJxrFy1a9Hpc+XjKw+d347vPWzYPAPJ78JHXaZw3wAhag6CrjSAEPIEg7x66bdu2nl27dj0Aj08aHh7hMDSfoVfXbCM86o0pEnz/KH77qDEK3z+I7z9u0mmhF8DMB/rHPHu5PsDy/d1pjNPKmKsvYK7+ITR5eLxAr75y8eLFA2m8x2IZ4HYB8m+wLXpMCcjXAvJjWfZmAgxzvXyv11dmGWZ8Y0WnLetMumgo3nx2SN8YvQMeXZ58RjDuq+yrv0roNUx58u1oMlbWF3IgEn0lH9v3Mj3OIEz9hVYmwIBbM9HDcA0t58Nle2PTpk1nc3ynXp3nVyADNLYr2G79omx9OpEfWDxOZ7jK0m0lI+m9Vroumgkww/MOas02NQH4jwD4v0y6GSFHnp+Ar76u2OPLH72+M2vWrJvnzp2reXtMXgB8LgD/jzEOm2M/WWnKFaYCTI/6U+bKzaYCDF8C3PNNutkhc/UMhiWtwC/xlYWOWnl/hM91rfetM5roAHkr/rjI6MwI1sd0ucGk3TAVYHrvt6kQrXpx3u0A/HWXSSvS9Gqd036fO/a7o3E6oO/a3t7eG+bPn6899pi4APhLABx9lZOt6v3MxZ9NMi4L4J9QcampXNbiyvArEr744ou9g4OD/4CR+k2f7zWE7h8fC0+39CYIo+oWYziN+Gd0ugUm7YapANNatuPIc6xK5zCp/9JKtzXKEK4pRF9S1cma14VD7mX4XulF3IFE4GH+Dtxol/q34FkA61fX0QNpWspkHHTEcO6UEKAnMlfrgcctPjrRm6fRm/f50HYaDTbquDjCADyGwSXCyNU3C2D9I+h0Uwk+2ne17vsJRnCOUJ/zBewfUcUeeQwHDdXzAbf4J4gMpzaFwgN8B4144SFcTNoNJ7oZTvo10hHAbLZ1ktLRAIcvFszBERM2btx4DWBfQ1w/M/kuR57RjsCxc9QkQwxsfYVR4pUF8E5qnmfVVq9o6h7YktVQlJatUy69MjTWXhua4zhGGCVeqceDOOlpp+blTrpKtt4D+qRJdMVgFJUpkjoHM7SdxXj/qqkBs5q/ojH5Vdg6D4DHPnCJfhjH/Pt2cEkcprN68GtUftaoL8bMAZ8y6SpsrQfkextcYZMGrpd2MP1jTrTMJ6EUvo6Q1J7vxbgiyuUB+Vy+t7EQNllMUnuwKnMM9nNayVqL0QwY322lq2gLPIDPdUQcbYeEibApRTStZwpj/3679XBk9sFSmFdMMj0gX9u+FxbCJLMiBJk9WExoLYc41K5ZvbG/fBIhM32EVDTFPSAfy9c2B2EhTOy8UuIMEyuclnQQBc4ohXnFpM4D8i299aDtc2FQR1hmBsJutQWiwB4UiU67ypQ1nnnJp/Kt7Wv5viU+QVD0bV8pgCL6+eP8lggfB0L0SFA+dcC9raWmo8RiRwFtoVqrREstbo0wfLjS9at83RrpjhSGEX3Tebej0AD50xzSKpnhAfkMP+6wfSnfyscZVZtfzPC8ylZMcZTTq7DV5eEB+cr1n3zqUbV1JLS02W5vJn2Me3nrtBhdkuQb7uM2uKTVa6O3WDvOIpS9FCWPOkofljEdp2ybFJIvuHHRW0fAoc8ubZNK+cWi/M0o7a4Ex/XQjT/qhuLQR5/J7+EOqQHQ6tFDdmsN4wPMM/M6RM2mqSEbsXfAtT/0yejpsVkeCufoftdQpTH2BRwxZvbRskU2Jdja39FzbBaQPuUYvgwHuNsr7aMF9h5u/R5q1ByBSlfpLN0TQJWty3x8UzZN25/rahPPYfo3cdLcOOM4VD9M/g85YH+YD3U/Rzr113RxPMrMQ8+uY8eOLUXn6+B7JenJcfzRcxs6f5qflWyKK29VXtsBtg3FWb30Ar0xojPXWXZZTHwQJ27kXo+z1/NC/vYYmsJZ9Lg5ANSHTrovhlH0LDaB6S7yV/EKzbfRKdd3NBL4lZLdUQC7FuHYCfSWRWFvuYr0qS5NO9IAqN86/XM4qvyUtN7g7MirowFO8hhAdzG0XwDwfTi3D7oPlA1+COLz8F0PkOsZan9BXlunhyR/VPmVByoPVB6oPFB5oPJA53ng/wCmbA3j3rWprAAAAABJRU5ErkJggg==;" vertex="1" parent="18">
                    <mxGeometry x="80" y="35" width="20" height="20" as="geometry"/>
                </mxCell>
                <mxCell id="15" value="" style="shape=image;verticalLabelPosition=bottom;verticalAlign=top;imageAspect=0;aspect=fixed;image=data:image/png,iVBORw0KGgoAAAANSUhEUgAAAKAAAACgCAYAAAH8yFe7AAAABGdBTUEAALGPC/xhBQAAADhlWElmTU0AKgAAAAgAAYdpAAQAAAABAAAAGgAAAAAAAqACAAQAAAABAAAAoKADAAQAAAABAAAAoAAAAACEJDuzAAAX2ElEQVR4Ae2dCZAexXXHd3WtkBBLwEIgVrdkcIgSA3IKcAiigu2ybKAgdkgFAjKHEBBwhdgWDlVmcYoiYDBxbAcMNkY2SgVQBWQbqGAnSMQHFRCOy9lwiJUQrBadDuLc1ZnfG02P++uv5/zO/b43VfN193uvX7/+95ue7v56Zjo69MiKwCuvvPKokd24cePs/fv3j5F08CORDRs29EqYdsyaNasXZe/NnDnzIML9yA/OmDHjaFFKfH1a/kx8jDnNCI4ykbxhaF2QrbOzc7XJH1XZEGxBQ/OFVLlT6AMDA4f39PR0ku9RaJ/wyWai2QUTfy9TpixCRrFp1MIYxhVWhqERDEteRPoxfGwnwB9CvNNgZ+TcMFahlTEA380Yly6rMpY9FCdcV3rtG8WUUNdqaWHthIDpYUyd7XRwLUO4lg5ALv4sx6Bc5+T5Z8K/EGVhOggDBXmc2lhjhb8QJSZd1jlkMVFkxKowPNnOU9J9UcrnYH7FFkiKi1VGMXKbIllTZWN2xIiJuHJ2ulCVLauCIu10IYUxhgdkr0JTBQl98SSFJY1iBE0VTCh0O27kfKFr4bM+oTgajXmkl2da2cvMSXQtzJm9XDzw9mpYKOPGcvVKUQQyIJBr5JdBX6oIXc0AQkf7BLP2Fr68FdOkDwynWoGuwcHB9wmNS3SZrdz0lTYtilfjeo6UWRG30Dzpqvdcll3eKLO4HpfBbOUsjH7dpUvaezfxCVaLtmfPnldFl40iI6ps6t0mtpVk0xAvJbo4E6f64qNumXVD0FyhfX194yZOnDjsVgUUL2fN4m5Autbm5TLQrZ0UCu3jKHzMVurGXTljrMiJTjsNqdvOn8tAR1GgB9rjRFL706xytnESr/tV7BqQlm56AxObWJoUH3mGWi5Iq2lB/ts+t7F1JRoogij4kJ2h3vGmb+J6A6LlKQKKgCKgCOREIHWYlFNfqriM/2KELuC2uiKGV3syI+X7EozrEF4Sv6YWvvbaa3Pdwkn/DKOH7IJJb+bcadNKmhhmr82sQvx51r0eEOPsYVVo7BfQfz9nsPZtynJlDb0Dxt9S04MiQpUiTIZkTBn5HSDczPmwrd7mr1+//qPwtxp+NNxC0bhp06ZV71/MsAQK/w+inzQFMkm/DlTPMWk3nD179hPITDb0yEBDqEF4yjvvvPPjonrrYeB3mQdfk2QgrWf+zy8TSx3yl+XISaA5l4Y+dpvJavucoRFeIHF4cuHcK3E5Eg2MUXQgZ8FfczWj+9uouMSkLXXne2j+bRbVNDCLLpHhKv4zy9j6TdxZdxklBnDebhsgcWhHCY/jVq7iB21+YhPbgpXG6TqkL5Q+8WXOkgUi0W2aVW4W+G2v0OSom4EHigsMmWvigpoxzNDcMLOBKHNXsQZQPk0KcZU6aVcuSDsyscnMBmKMdxUrDQFTclY5I2/CenTUpqxCYWYErSZ2mywoWBDCwWdyMWywLMnVnFa+KJrZQLeJfU3G1fcKmkuGcFFJBSNN38RqYMGWjbIl+uC4ceMmZujnImUFIp9Py5No4NSpU99FQVWdPs0gl68+6CKSN930CEY+uGPHjptkqJO3htWW5060rto6VZ8ioAgoAoqAIqAIKAKKgBeBhs41vBbVgMiaYyeb1mQ19+I49chsg/dpFh7WxMn46C0LoKwijxo16gGr0itY4L2IwfpeixZF5b8jeD/g7BIigL4JmCV73CJhK9JyADKjugUQ5B9AOU5keeu5A9F8v+jZjJ4pksu3RGa0tRSAZn0G77kC77nLVNKE8OW/uDNM2g7JcxR5Nts0iRudRL3/tHsBBP3TyHC6KGjiY39XV9c3WTfaLjZaFZ2Kx5RtdTZ8WQgL15qiqsH7OYmTAfElQDwmYoQR8BiSSxv+QvhrbH60oGATiQfgIdzr0JsyyQ3iaion/dYqbPaBF9DoE+e64EmFAPwUARiQ3o+OMYR77Iqic3zIXw29xOmafsnIrkhcnErfILyxY8deEiMTPCQ1ffr0/hi+kINH62iM6xJkylgtASC1ektqNjw8fJhbQ3PpQk98Mg0vNDeevyNP9I+7q89NtwSAe/fuPUsqNnr06P9yK2jSAJS6g3nfvn3Hijwe/VcmX5gebafteFwfaMvExulcX5R+I1ag/oxDselp+qyTTNEAJ/+bv2V5omF5Q8D7e/J/0WZyWQd9omwUsOkSLwygGEX+gynQe/t3C6pHGvCepEEXYlvwNg1TJiBOMnETypMsxx133C6T9oXoOQH6WuFJQ/hkyhD1CcXQDhY6rVU2doqRrzkZW04PvSS4awqQcYUmgUdDmN1Ha3GQ5XHgie7CHhhnWKPpeKBs6gi8RTwSECVtjjeI3ESfuWpoaGhjd3f3JJ5KOwmQLiPf2UZIQvrTeez+e9mm+eItB6BdSfFIO93f3z+fseBVgPPEhAkTpgLeOOFDu4Yhzjkh+HaW6EU86OotYYSJmgBIq7+G/h5fgYZmLosssiZPUpimT/hz5sz5NTqWGj3GO7nsv25oecOaAIix07Iakkc2i85q60srs5KbSJrutuDXxAN9l6VcQoKoj+cizYB2JpsuN3IT+C790mKXb6eNXptWz3hNAEy6jJJ4bsXpuD8DTc6mPfQSrrBpFEAFsEIEKsxeuA+Uld1du3a9Y8ZSFdrRsOzMQl6spPDCADbDFsxKKl6tvNoHVoikAqgAVohAhdnjPHBQ9HKD+NMK9Y/o7L43RLkVCqZXLlHSsmLLko/MAo7y8duE9h5LXytT/s1rEyi0moqAIqAIKAKKgCKgCCgCioAioAgoAoqAIqAIKAKKgCIQu6DaStCwx0YeHHqIfTbRawo99buXbW6X+vYIemQjUksDyF8S51PT+6PaZotsYv9O4t5GW03LAojXme/xyWMLw5xnycsy7cqbOLzR7MRfTloADw52iJ3nvpbP8Oyw5QAEjDGAsdtUkktyDpdm4gcwjKyEeO2jBPJRRAF+OTvEFks87mg5AAEg2FRO5bdQ+eARr7jKx9HRET3egJ5b0bMsTralADSXbRJ4yCzDK78EIBM4f8EG80/xr1vwN64NEl4sn34Nnq1L2rHfMgDiNdENw7drFUB+B0B+Y4NkxZ8mz8lWOogC9lLAvlMSPp1C9wJIRnH9aDe7CDbjwaXVa+wyl25cn2f4yG/nBrFAthBDk2fizA79HwHSmUafCZGRh3XGA/7llHe3oZswbmdC04NHBaInpGhwGecFd1vfDQMQgsf+AeFXgDRZwBN54t/gjdJdEuf4JHyfQ80WJg3zLQndI3F7m93CbsYmSz8k9gBA8NSmx7bjhUZ9Pujy5JEvAP4+9L/kMv8G4VW2DCC/Dj8gCcAc9pNP9Xslsm1UteNUKphhxI3z0soj/2dFBoAu9clCXyX0V199teQxWKHFXcLCa4mDx7umhxUJHvv3VYrL/v+EDpDBo1+uDPR7hEbfea7La3kAGYIED1rjRc+6lc+aHjNmzNMiC5Dz3TwtDyAV/nJY+din2W1Q6O9kEF1y7Ny58y0h0Ahlzx23NIC8jehC6v27Unm26v2DhHEH4DwS8oIHrG258ePHz5A0HrjJpku8pQFklnGDVBJwjj/iiCPelnjcwR36HOSCJ9i3bt0aPExuZOkGgmeJ4ZctRrQUgFTQfTlE8DUaPGeOASMpRC64iUyePNl90v16ycdN5Jtu/sRxoCvcxOl7se1ixnHLCS+w7LyEuAyiV5qxnMWLjQKk+4KyQ0U4fN64JF9hABkTzaFFUh+JLymt9gmZD0cAMgj+JaAuwTPLpmAxpuzbvn37eJsH8LeHae9LewoD2ITgBfWkwo8C3CcMCIzxZAwXjOMMDRkzm9iB7PsMPSa8VuhM+YKbkStTGECjCAN880fDrmsYArOI8ATsCua/PgPE5nXr1h0yb968N318Q0NP0Bfiwavj3vLRajeRPw8rv5ZLd7YBwhdmAG89+YLLmTv06T4dQmspAKnoA3iL3Ehk6NIv63kSz3uEnjdL8qVdYS0FoFQYEBcD3q0S5256p4DBmelZF+Ru55T+MfC8NPCkjIr7QFHSbAcgLuObfvfwgp112CZgDAKMeOUqQL1H5rYyPZMZRjhIvh6ZYKgidUFuNTpiL1uRMUdLAiiVC986JN8rWgJowWIoocwozuaFOx18+c5gYIf9cre1bxjk70VgJ4DeYQuaeMsCaCpIxWUMeDde1SnrebIkBZDzSU8iDGYeeOrv+wbJRgdhtxUvibY8gKa2gCV9m/z/Yf4D6Qj7O+8Mw+RLC2sCoDEsofDos18ZZBPURKw0fRE/ylGlSK3uwgMp9i2x+GmylmhsNE2fzY9VUoRREw/k9q/vzirSGu2Yp1aXcNtgqQBW2NQ16QM9d9boLujhuVWQj78GDZtBNtLrKqlXulYe6N5Z7bugyyupKwPcLxoC8WdMPCa09caI1JZcEw9Mugsn8dyqMov4Q5fWbOlaeWCz1bNm9iiAFUKrACqAFSJQYXb1QAWwQgQqzF6xB7JiW+hRggrtrjg7g/SVoZLC294kf+FxIINc+ZbIMZzRFtiKa9UABbzK9LRKii3sgQxyj6Xgz3Mm7nqqxLga533W94WvvGUW9kApiFnFbQRytu1R2APbFjGn4gqgA0jepAKYFzFHXgF0AMmbVADzIubIK4AOIHmTCmBexBz5RAAHBwcnOPJtlbT2F26Mq3inj0HGa6Af5uO1I40Jw43h3pqy6nsBFCme8jmVB1VOZc47rixX+xCeZ8pqf6e9fWquNVUEFAFFQBFQBBQBRUARUAQUAUVAEVAEFAFFQBFQBBQBRUARUAQUAUVAEVAEFAFFQBFQBBQBRUARUAQUAUWgIQjEbmtriDVaaFUQYCtiJ9sSf4/X+y3kJWvHoVQexZtBeAi84C3spOWt7G+Slk2jL7KFsY+32a3mQw7/E7cHErmqH+qAVYe0vgr7+vrG8Xb7xTjNFyg503vGc1jYj4Pe+u67795nv0oxR/5UUXXAVIiaT4CXms6lt7oHp1uYYN0bOM8aZH6KzPO8WvKlrq6u35jvUXR3d08aHh4+jBefvh/+B5D9I2Tlgd/oBaiubmRW06teFr4T1GUXSqsDFoKtMZl4ZOIWnER6OvcYgvBPnLfxGEHs53rcTElpHuOX1x1/jvNKzuBVxra89Izsul9m04rE1QGLoFbnPDjefTjeRU6xQzjBX+MEdzn0miTlQSNskLcXlzgjNizHhsVFC1UHLIpcHfLR6OfR6P/iFLUB2hm+bw46cmVJnKWTnq2bCUcnnxCVLwbvKxNKIchnCdDzE8Rm2aJMdjJ9QdjOI3F1QBeRJknjfE/iIAstc+Q2+2FusbEf9rBk5QX2Y3A2eY/Kdeg5xOZ54vKhjzt27979Zb5rMezhl5HQLd87+xln1CNSZuaX5huFuR0QYKTAkzg/QMXkG7Pt/PShwTFPuB/hLUwIVk6dOnW7m1FmtbzYXz5ecrTFewzHiz7LY9HLokxQDmLC8RSMBWXMAwRxNun5vF8PgN6HI56S9oGVA6pKPwEe0jbxAYLZWWfNmR1QHA+HuxKHS7uajG0aJiNQ9ugs2HZyi5NPdtjLKV/F+f4mWdUBLnnPQMePbVnST40dO/bcnp6eHTbdxF944YVJfAZEHuH9uKGF4bmU+7BD8ybpDeVDXcG3pkKBfoYI8/AXudgSjzwOuBRNRxptjCPWcv6EKXnwnSZD17A4AjTkd8h9saVhBU4QfdXNopdF6SA+SIP/0mIwLNt3AgvLv7JosVE+ejtPFqPRMdYIkf808ktvmnpg+/0InW8J3ovtl1hpb3SUl+onRs4nbDz8h+p8fqCKUHGA+eSzne8NMHZnvkmqg69GGQF6vvOzOp/k4fMz63C+s01+CXHIr9rppHho6xuWzMVhnSxSeTSPA5bnVkrVEKCxr3KU3YRDuB/0dEQOJGXciOxHLOZeep8HrXSmKHkeR9BeRzyRnm1WlsyhrTfZsp462ewgrg5YBkljCDTgx+ySmUisstNJcf6Kkxmpffw3+nIvsYgCes7/tBVxGz7VTifFXZvdOvnyqgP6UGkAjYafahc7NDS00U6nxEu+z4CuZ1LkY9k4TYkD0otldkDXZrdOvkLVAX2oNIBGw8vulOiQ/2qjREyEBpa1vrXk/ZotQlr+/y10kPdJJ+OlTHA288q5tC8ud7g2u3Vy9AZJdUAfKg2g4Uy/totls4GstSYeLLs8goB9+/0RmwsmMJZbkZgxgclkoo9zDPb8oxHDkaawcWGtSceFrs1unXz51AF9qDSAxq3uX+1iabzL7HRM/A9sOg5wZTVWJnC4vfy/+1l0R7NaaNNZ5D7MLs+Nuza7dXLlJZ1nHbDXVoCBJWmbp/H8CNB48j/tFhp6ssnNBOBjLKU8YdJuyK3xTuRlfdYcsgXrRhKr6Qm34pDeWTR6vQvEbLUajdMcjo7jQz32DPin9Kyx40E2wH6UvP9mDCH/NuSnYJ+3LCNX0ScHjJIiobzGdteuXbLV5zzOYzkPLqKnVfJwO5Uvv5dUhwZ9HPp8bon/W8IIE3QCV+CEW8n3pZB0KPE7JI6TyTpeSC4N4ugmX6l0kPo+znShhx6QuHCOwuF+4PA/neZ8Il9aY0eDnaSivXa6aA8ojsd44jmMO8bWp/FYBPYIVjjh+lgJGPRAU3CsC3GEU5GXv/IOJT7a5IF2BPGy9kZmJ/QhkUNGlm52QttI/BnCFbTzC8KLO7hAZHdMH3zZIxAcpC8nn3x/PfWoew9Ir7eGytnOtxKDr8bgzanWtokAPYr8pSV/bckhE4J+OoArwOiuA6TyX27VW6B+JTzLBMJNCl9D14Xg34WATCqWoPO5MuGMBGxair47HfEL0Jl5ElR2RTjKomS1ekDALRkT0LVntiEypg0iOIxsu5cllmjzB429hV7ulLTesNbwSK/HLf7n2DbFlIVtbzKGPDHvdn3/IMFo1bBhCEhD0pN007DRf7zS4KSlN9zMhWwvv9TFTilTyhYbHOeT7fndeZ1PjK77LbguSLVQITTsMhr8ehr/2zT6RVK1sPHXQpPkY6SvrlWvGI7xvk45i6QwypIgOLBrOXewS6HtMbS8oTpgXsQaIB828GKKXkwPJKsGd0Mzt+ZFOMIicUbCYegruT1+D8f9d+LeZZi4KpB/NPr/JJzMfIr8XdBKxEnLs8SXMebMvdmhRFGY+K07+7gWDcN6rWQHFSxJ27ykOECV1EjHgEloJfPAUiYrt3AenSxZMXcTGpbRVmWTi3CseqaUwBhQtui9nKc07QHzoNVksqFDBE5BryQL2X9MryVLMWcSRgvaecwm7zby/pDwe+h/inhJh+HqYqIUbZgN472uTFJaHTAJnRHECx1lDSbLmXo0y51oxDgggMkzC7K42ZOKrl9gAPISrurHbXYV9NrqKolXap83fyUG1SPvSFqGqcT5BEtxXN/qfKV6q9VOldoXl79a9tVEz4jpAem5ptUCgVrprZatzW5fpfUcST1gpXXV/E2IgDpgEzZKO5mkDthOrd2EdR0xY8AMs1XvLDBDvsRmYT1MtivdzMK7LPhGBwvzM0k8yPKHvAIj84J+pKCjw2uvxW+L6EjqAdNmq3GzwLR8iQ2Ng3Vz3sx+uxmO4A3QPwStiPOJqjh7nWJaOzliesCis8Gi+dKanR7xM8jIqUcFCIykHrCCamrWZkVAHbBZW6ZN7FIHbJOGbtZqqgM2a8u0iV3qgG3S0M1aTXXAZm2ZNrGrEQ74to0tC7pH2mmN1x4BD+YlbVJ7C35bQiPWAW+keHl+NThYzH2dfyvClAYNQkDapCFH3XtAFoZv46GXufzF9VJDaqyFRghIG0hbSJtExDpHGtEDdvCRlH7qeUyd66rFNSECde8BmxADNamBCKgDNhB8LZo38SsIikAjEVAHbCT6Wrb2gOoDjUVAe8DG4t/2pasDtr0LNBaAPA5Y8h3ZzZs3T2ys6Vp6oxEYGBg43LGhxEccnjfZ6aV6iLwn7sO89usjHpaSFIEAAf5ZeTjPBxIlU2YHFGHxeD5mLK8ES/xehMjq0T4I8Hde37Zt2x5ZsGDB7vaptdZUEVAEFAFFQBFQBBQBRUARUAQUAUVAEVAEFAFFQBFQBBQBRUARUAQUAUVAEVAEFAFFQBFQBBQBRUARUAQUgaZC4P8BipnO8U9mylIAAAAASUVORK5CYII=" vertex="1" parent="18">
                    <mxGeometry x="10" y="5" width="50" height="50" as="geometry"/>
                </mxCell>
                <mxCell id="17" value="0/4 Complete" style="text;whiteSpace=wrap;fontSize=14;fontFamily=varela round;fontColor=#CCCCCC;" vertex="1" parent="18">
                    <mxGeometry x="107.5" y="30" width="125" height="30" as="geometry"/>
                </mxCell>
                <mxCell id="24" style="edgeStyle=orthogonalEdgeStyle;rounded=1;orthogonalLoop=1;jettySize=auto;html=1;fontSize=14;fontColor=#CCCCCC;endArrow=none;endFill=0;strokeColor=#636363;strokeWidth=4;exitX=0;exitY=0.5;exitDx=0;exitDy=0;" edge="1" parent="1" source="8" target="saldxAls0CMVUxLMnOsH-15">
                    <mxGeometry relative="1" as="geometry">
                        <Array as="points">
                            <mxPoint x="640" y="430"/>
                        </Array>
                    </mxGeometry>
                </mxCell>
            </root>
        </mxGraphModel>
    </diagram>
</mxfile>